<?xml version="1.0" encoding="UTF-8" standalone="no"?>
<!-- Created with Inkscape (http://www.inkscape.org/) -->
<svg
   xmlns:dc="http://purl.org/dc/elements/1.1/"
   xmlns:cc="http://web.resource.org/cc/"
   xmlns:rdf="http://www.w3.org/1999/02/22-rdf-syntax-ns#"
   xmlns:svg="http://www.w3.org/2000/svg"
   xmlns="http://www.w3.org/2000/svg"
   xmlns:xlink="http://www.w3.org/1999/xlink"
   xmlns:sodipodi="http://sodipodi.sourceforge.net/DTD/sodipodi-0.dtd"
   xmlns:inkscape="http://www.inkscape.org/namespaces/inkscape"
   width="687.17542"
   height="672.04779"
   id="svg2"
   sodipodi:version="0.32"
   inkscape:version="0.45.1"
   version="1.0"
   sodipodi:docbase="D:\Documents and Settings\Joanna\My Documents\My Pictures\graph_vector"
   sodipodi:docname="baby_boy_crawling_2.svg"
   inkscape:output_extension="org.inkscape.output.svg.inkscape"
   inkscape:export-filename="D:\Documents and Settings\Joanna\My Documents\My Pictures\graph_vector\baby_boy_crawling_2.png"
   inkscape:export-xdpi="152"
   inkscape:export-ydpi="152">
  <defs
     id="defs4">
    <linearGradient
       inkscape:collect="always"
       id="linearGradient7416">
      <stop
         style="stop-color:#daab9b;stop-opacity:1;"
         offset="0"
         id="stop7418" />
      <stop
         style="stop-color:#daab9b;stop-opacity:0;"
         offset="1"
         id="stop7420" />
    </linearGradient>
    <radialGradient
       inkscape:collect="always"
       xlink:href="#linearGradient7416"
       id="radialGradient3973"
       gradientUnits="userSpaceOnUse"
       cx="119.28571"
       cy="400.21933"
       fx="119.28571"
       fy="400.21933"
       r="52.142857" />
    <radialGradient
       inkscape:collect="always"
       xlink:href="#linearGradient7416"
       id="radialGradient3975"
       gradientUnits="userSpaceOnUse"
       cx="119.28571"
       cy="400.21933"
       fx="119.28571"
       fy="400.21933"
       r="52.142857" />
    <linearGradient
       gradientUnits="userSpaceOnUse"
       y2="546.77863"
       x2="445.02139"
       y1="269.99683"
       x1="450.17905"
       id="linearGradient4579"
       xlink:href="#linearGradient4573"
       inkscape:collect="always" />
    <linearGradient
       id="linearGradient4573">
      <stop
         id="stop4575"
         offset="0"
         style="stop-color:#d19b75;stop-opacity:1;" />
      <stop
         id="stop4577"
         offset="1"
         style="stop-color:#e8cdba;stop-opacity:0;" />
    </linearGradient>
  </defs>
  <sodipodi:namedview
     id="base"
     pagecolor="#ffffff"
     bordercolor="#666666"
     borderopacity="1.0"
     gridtolerance="1"
     guidetolerance="10"
     objecttolerance="10"
     inkscape:pageopacity="0.0"
     inkscape:pageshadow="2"
     inkscape:zoom="1.0862323"
     inkscape:cx="343.58771"
     inkscape:cy="336.0239"
     inkscape:document-units="px"
     inkscape:current-layer="layer4"
     inkscape:window-width="844"
     inkscape:window-height="909"
     inkscape:window-x="174"
     inkscape:window-y="1"
     width="750px"
     height="750px"
     borderlayer="true"
     showgrid="true"
     gridspacingx="10px"
     gridspacingy="10px"
     inkscape:grid-bbox="false" />
  <metadata
     id="metadata7">
    <rdf:RDF>
      <cc:Work
         rdf:about="">
        <dc:format>image/svg+xml</dc:format>
        <dc:type
           rdf:resource="http://purl.org/dc/dcmitype/StillImage" />
      </cc:Work>
    </rdf:RDF>
  </metadata>
  <g
     inkscape:groupmode="layer"
     id="layer4"
     inkscape:label="najwyz"
     transform="translate(-36.3979,-48.291677)">
    <path
       style="fill:#000000;fill-opacity:1;fill-rule:evenodd;stroke:#000000;stroke-width:1.03268337px;stroke-linecap:butt;stroke-linejoin:miter;stroke-opacity:1"
       d="M 224.06242,432.60321 C 223.04441,492.4256 222.51155,540.49843 200.6791,595.73365 C 188.07903,627.61132 157.77739,606.56095 146.58867,625.96134 C 135.4502,645.2746 157.06302,642.46385 170.43679,639.48894 C 151.92579,640.56029 133.8345,643.07283 139.31121,657.60323 C 149.54777,684.76213 174.47256,670.59897 190.24716,667.35174 C 172.81778,675.16387 151.15312,670.18322 161.47061,687.49647 C 174.14134,708.75862 189.27595,693.4654 201.56979,688.97177 C 189.78227,694.38473 176.17215,702.54332 197.09038,711.09332 C 208.95175,715.94147 217.99568,713.2812 223.20451,702.24913 C 222.05744,708.70758 218.76048,718.84283 232.26862,719.72407 C 252.28307,721.02977 260.74265,709.18966 269.69688,698.41636 C 302.33477,659.14791 312.61964,621.47513 325.26993,585.47523 C 359.89133,614.96607 387.79472,625.28848 427.64861,615.5357 C 426.24521,659.77077 448.05125,681.1796 481.09407,689.69166 C 503.81114,695.54374 530.73073,694.4843 555.66026,689.56071 C 590.19215,682.74066 607.66218,647.85872 616.48213,625.86252 C 608.21867,648.93215 578.47583,671.93994 613.25232,678.69266 C 636.88455,683.28145 643.15181,678.99144 640.01217,657.98221 C 640.67572,670.56044 635.61079,681.4013 653.88745,679.7009 C 665.57137,678.61386 669.65474,674.10803 666.77201,661.94098 C 672.06073,673.01494 680.23181,673.06268 684.81684,670.8337 C 699.25451,663.81491 694.22242,657.8591 695.74166,646.5162 C 700.33237,657.54686 705.198,657.16851 710.12038,654.60581 C 724.24439,647.25263 724.72038,618.30732 721.26685,600.48815 C 714.43292,565.22698 688.2548,534.69281 650.83907,534.4951 C 634.84748,551.68741 620.16122,578.14432 594.35321,575.70362 C 586.24315,602.3949 572.03465,607.74165 558.94688,617.01096 C 575.47394,603.91309 589.33159,589.21357 592.87794,568.32732 C 623.30596,578.71722 646.34775,549.41896 651.88838,528.49524 C 661.98865,490.35256 653.74725,438.45789 619.43266,410.47427 C 597.49484,392.58396 549.89075,375.5874 495.51065,398.67218 C 432.84443,417.5851 389.91812,401.57369 361.26177,360.31537 C 310.15818,337.86894 241.51305,368.81516 224.06242,432.60321 z "
       id="path5036"
       sodipodi:nodetypes="csscscscscssccsscscscscssccccssccc" />
    <path
       style="fill:#000000;fill-opacity:1;fill-rule:evenodd;stroke:none;stroke-width:1px;stroke-linecap:butt;stroke-linejoin:miter;stroke-opacity:1"
       d="M 473.72595,428.70722 C 445.61919,423.84661 416.18681,404.93426 421.15569,368.32603 C 444.47414,352.36188 466.80153,347.90656 481.08578,368.32603 C 498.14089,392.70648 487.87867,413.01267 473.72595,428.70722 z "
       id="path9938"
       sodipodi:nodetypes="ccsc" />
    <path
       sodipodi:nodetypes="csscscscscssccsscscscscssccccssccc"
       id="path4055"
       d="M 234.28575,434.28571 C 233.29994,492.21479 220.52411,547.1774 201.42861,601.42857 C 192.68111,626.28061 162.20908,610.24616 150.00004,624.28571 C 135.64507,640.79294 158.82603,642.49585 172.85718,642.85714 C 154.93205,643.89458 135.7205,643.46701 141.42861,657.14286 C 152.09404,682.6958 168.53179,667.59918 182.85718,668.57143 C 169.91401,674.78067 156.46347,672.21918 162.85718,685.71429 C 173.11922,707.37422 190.26393,690.15173 202.16869,685.80032 C 193.37043,693.65812 179.08374,699.71348 198.41652,709.96555 C 210.85248,716.56028 219.36213,708.34897 225.43889,698.00343 C 225.53326,705.66851 217.67941,713.13524 229.27709,717.34939 C 246.53439,723.62002 260.43421,705.8196 269.10502,695.38727 C 300.70996,657.36162 310.6072,620.57483 322.85718,585.71429 C 356.38285,614.27178 392.83606,620.87269 431.42861,611.42857 C 427.14072,655.23998 448.88749,677.73079 482.85718,687.14286 C 501.22448,692.23193 531.57375,690.48206 555.71433,685.71429 C 589.15329,679.11009 605.74494,642.72861 614.28575,621.42857 C 609.98066,644.44021 582.03847,670.60385 615.71433,677.14286 C 638.5986,681.58641 638.33525,671.85714 640.00004,652.85714 C 643.33124,664.7012 633.45992,682.36929 655.71433,677.14286 C 666.77641,674.54494 667.6324,669.11284 664.28575,655.71429 C 672.52756,668.91366 673.945,670.77102 683.4505,667.81501 C 699.71424,662.75735 692.82004,652.41248 694.29119,641.42857 C 697.76037,655.36453 705.46398,655.76552 710.33612,652.77288 C 724.3927,644.13883 722.01201,617.23627 718.57147,600 C 710.32657,558.69511 684.29847,538.59436 648.06687,538.40291 C 633.92575,554.37894 629.27507,560.76927 594.20149,569.83244 C 586.34812,595.67897 581.32733,596.82358 558.57147,612.85714 C 577.26406,597.82127 587.99448,585.93952 591.42861,565.71429 C 616.86068,568.04559 643.2062,547.40436 648.57147,527.14286 C 658.35203,490.20736 650.37148,439.9551 617.1429,412.85714 C 595.89941,395.53304 549.80194,379.0744 497.1429,401.42857 C 436.46005,419.74291 394.8923,404.23825 367.1429,364.28571 C 317.65663,342.54969 251.18409,372.51649 234.28575,434.28571 z "
       style="fill:#e8cdba;fill-opacity:1;fill-rule:evenodd;stroke:#000000;stroke-width:1px;stroke-linecap:butt;stroke-linejoin:miter;stroke-opacity:1" />
    <path
       sodipodi:nodetypes="ccsc"
       id="path4063"
       d="M 472.4335,424.90494 C 447.02231,420.54331 420.41264,403.57249 424.90498,370.72243 C 445.98708,356.39715 466.17317,352.39921 479.08749,370.72243 C 494.50694,392.6 485.22891,410.82158 472.4335,424.90494 z "
       style="fill:#ffffff;fill-opacity:1;fill-rule:evenodd;stroke:none;stroke-width:1px;stroke-linecap:butt;stroke-linejoin:miter;stroke-opacity:1" />
    <path
       sodipodi:nodetypes="ccccc"
       id="path4059"
       d="M 462.47638,533.78646 C 503.81107,517.91187 587.40601,498.09281 592.82223,570.32281 C 656.68384,562.11002 651.95589,515.48707 652.07041,471.57592 C 620.25463,350.34031 523.86669,389.07092 449.63926,405.4155 C 470.18261,438.19702 476.14801,479.94953 462.47638,533.78646 z "
       style="fill:#000000;fill-opacity:1;fill-rule:evenodd;stroke:#000000;stroke-width:1.03881729px;stroke-linecap:butt;stroke-linejoin:miter;stroke-opacity:1" />
    <path
       style="fill:#ffffff;fill-opacity:1;fill-rule:evenodd;stroke:none;stroke-width:1.34278119px;stroke-linecap:butt;stroke-linejoin:miter;stroke-opacity:1"
       d="M 469.4632,525.99439 C 508.88633,510.85392 590.51658,495.75367 595.68238,564.6434 C 655.64015,553.00813 648.27909,513.29411 648.38829,471.41362 C 618.04387,355.78454 526.11339,392.72406 455.31853,408.31278 C 474.91189,439.57833 482.50257,474.64715 469.4632,525.99439 z "
       id="path6976"
       sodipodi:nodetypes="ccccc" />
    <path
       style="fill:#000000;fill-opacity:1;fill-rule:evenodd;stroke:none;stroke-width:1.04810977px;stroke-linecap:butt;stroke-linejoin:miter;stroke-opacity:1"
       d="M 228.49095,431.39292 L 200.59444,501.04259 C 235.42,517.17198 268.62906,526.50508 323.27679,537.00092 C 323.84125,551.14874 326.2817,561.5444 319.29156,590.80123 C 347.07319,612.96885 379.76524,628.75274 433.86629,616.70509 C 479.55528,548.52143 499.98249,454.70694 491.74331,398.51495 C 424.10558,419.09708 401.26013,393.01254 366.02631,363.50718 C 316.59138,344.53736 270.00664,347.41171 228.49095,431.39292 z "
       id="path4065"
       sodipodi:nodetypes="cccccccc" />
    <path
       sodipodi:nodetypes="ccccccccccc"
       id="path4057"
       d="M 232.27053,433.20301 L 205.65456,497.84179 C 260.57794,524.80669 309.87838,526.81861 349.74822,536.77405 C 365.41995,506.74007 364.09002,412.36573 353.1653,414.10543 C 377.76043,431.19018 363.20053,508.06448 355.54564,541.47991 C 333.4457,539.0988 313.11543,536.3959 326.377,537.76574 C 326.9155,551.26415 331.1451,560.23207 324.47586,588.14597 C 350.98222,609.29606 379.32203,621.50374 430.93974,610.00909 C 474.53149,544.95516 495.83497,455.44688 487.97396,401.83419 C 423.44094,421.47157 394.3886,392.95659 364.39981,365.71251 C 317.23395,347.61343 271.88058,353.07666 232.27053,433.20301 z "
       style="fill:#87cdde;fill-opacity:1;fill-rule:evenodd;stroke:#000000;stroke-width:1px;stroke-linecap:butt;stroke-linejoin:miter;stroke-opacity:1" />
    <path
       style="fill:#000000;fill-opacity:1;fill-rule:evenodd;stroke:#000000;stroke-width:1.08963048px;stroke-linecap:butt;stroke-linejoin:miter;stroke-opacity:1"
       d="M 458.5665,404.03721 C 497.34441,412.1006 510.82726,444.21562 502.64028,496.14531 C 458.52663,497.9978 415.38339,468.76735 458.5665,404.03721 z "
       id="path7998"
       sodipodi:nodetypes="ccc" />
    <path
       sodipodi:nodetypes="ccc"
       id="path4061"
       d="M 459.12552,407.79468 C 495.08859,415.11764 507.59274,444.28367 500.00004,491.44487 C 459.08855,493.12725 419.07702,466.58091 459.12552,407.79468 z "
       style="fill:#fffffe;fill-opacity:1;fill-rule:evenodd;stroke:none;stroke-width:1px;stroke-linecap:butt;stroke-linejoin:miter;stroke-opacity:1" />
    <g
       transform="matrix(0.7803572,-7.2326276e-2,5.8064546e-2,0.6923755,-26.416068,-38.297779)"
       id="layer1"
       inkscape:label="Layer 1">
      <g
         transform="matrix(0.9581739,-0.3134815,0.2463981,0.9630389,-293.25609,49.515033)"
         id="g4581">
        <path
           id="path3686"
           d="M 417.99222,824.31946 C 365.69644,816.60711 321.24382,781.66137 291.57909,739.21357 C 260.70596,695.31594 244.63398,642.21682 241.1678,588.95814 C 234.7463,578.71828 218.83858,577.30128 217.20105,562.90187 C 213.47202,552.28007 214.56345,539.78967 217.38366,528.92991 C 219.31145,513.81661 237.27013,510.78214 245.89162,506.17791 C 258.39543,441.80222 290.87511,378.71906 345.42807,340.35369 C 372.42934,320.52808 405.29857,308.68843 438.89921,308.29527 C 445.90719,306.28652 460.46362,311.47047 461.18546,301.32642 C 458.75819,294.25851 459.80795,286.0817 464.24766,281.55029 C 453.86372,275.5684 450.78997,260.48956 464.69432,256.35855 C 480.46844,251.22981 480.41811,274.06642 489.153,282.14534 C 492.81019,294.36079 473.92759,296.04193 481.71409,309.17392 C 487.76129,317.2857 505.27105,316.67303 514.7719,323.91575 C 567.8715,349.34341 606.37634,398.75896 626.8988,453.08422 C 634.77913,473.56056 640.37828,494.90111 643.7477,516.57694 C 656.58943,516.24565 675.3262,520.61494 675.02734,536.69956 C 675.92578,553.09783 674.12895,571.30187 663.43944,584.47011 C 657.42517,592.30629 643.0186,588.6776 645.90125,601.42474 C 639.00356,664.59883 614.46563,727.63164 568.31866,772.50749 C 536.35567,804.47694 492.77046,826.55415 446.84692,825.80064 C 437.20984,825.90487 427.57252,825.34644 417.99222,824.31946 z "
           style="fill:#e8cdba;fill-opacity:1" />
        <path
           style="fill:url(#linearGradient4579);fill-opacity:1"
           d="M 417.99222,824.31946 C 365.69644,816.60711 321.24382,781.66137 291.57909,739.21357 C 260.70596,695.31594 244.63398,642.21682 241.1678,588.95814 C 234.7463,578.71828 218.83858,577.30128 217.20105,562.90187 C 213.47202,552.28007 214.56345,539.78967 217.38366,528.92991 C 219.31145,513.81661 237.27013,510.78214 245.89162,506.17791 C 258.39543,441.80222 290.87511,378.71906 345.42807,340.35369 C 372.42934,320.52808 405.29857,308.68843 438.89921,308.29527 C 445.90719,306.28652 460.46362,311.47047 461.18546,301.32642 C 458.75819,294.25851 459.80795,286.0817 464.24766,281.55029 C 453.86372,275.5684 450.78997,260.48956 464.69432,256.35855 C 480.46844,251.22981 480.41811,274.06642 489.153,282.14534 C 492.81019,294.36079 473.92759,296.04193 481.71409,309.17392 C 487.76129,317.2857 505.27105,316.67303 514.7719,323.91575 C 567.8715,349.34341 606.37634,398.75896 626.8988,453.08422 C 634.77913,473.56056 640.37828,494.90111 643.7477,516.57694 C 656.58943,516.24565 675.3262,520.61494 675.02734,536.69956 C 675.92578,553.09783 674.12895,571.30187 663.43944,584.47011 C 657.42517,592.30629 643.0186,588.6776 645.90125,601.42474 C 639.00356,664.59883 614.46563,727.63164 568.31866,772.50749 C 536.35567,804.47694 492.77046,826.55415 446.84692,825.80064 C 437.20984,825.90487 427.57252,825.34644 417.99222,824.31946 z "
           id="path1912" />
        <path
           style="fill:#000000"
           d="M 417.99222,824.31946 C 365.69644,816.60711 321.24382,781.66137 291.57909,739.21357 C 260.70596,695.31594 244.63398,642.21682 241.1678,588.95814 C 234.7463,578.71828 218.83858,577.30128 217.20105,562.90187 C 213.47202,552.28007 214.56345,539.78967 217.38366,528.92991 C 219.31145,513.81661 237.27013,510.78214 245.89162,506.17791 C 258.39543,441.80222 290.87511,378.71906 345.42807,340.35369 C 372.42934,320.52808 405.29857,308.68843 438.89921,308.29527 C 445.90719,306.28652 460.46362,311.47047 461.18546,301.32642 C 458.75819,294.25851 459.80795,286.0817 464.24766,281.55029 C 453.86372,275.5684 450.78997,260.48956 464.69432,256.35855 C 480.46844,251.22981 480.41811,274.06642 489.153,282.14534 C 492.81019,294.36079 473.92759,296.04193 481.71409,309.17392 C 487.76129,317.2857 505.27105,316.67303 514.7719,323.91575 C 567.8715,349.34341 606.37634,398.75896 626.8988,453.08422 C 634.77913,473.56056 640.37828,494.90111 643.7477,516.57694 C 656.58943,516.24565 675.3262,520.61494 675.02734,536.69956 C 675.92578,553.09783 674.12895,571.30187 663.43944,584.47011 C 657.42517,592.30629 643.0186,588.6776 645.90125,601.42474 C 639.00356,664.59883 614.46563,727.63164 568.31866,772.50749 C 536.35567,804.47694 492.77046,826.55415 446.84692,825.80064 C 437.20984,825.90487 427.57252,825.34644 417.99222,824.31946 z M 470.09247,819.54889 C 522.89632,811.44135 567.48775,775.30513 596.30351,731.63963 C 623.42783,690.51173 638.0083,642.0127 642.50378,593.19061 C 644.61121,583.53132 663.00837,587.21733 665.09812,574.36918 C 670.04793,563.64902 670.78192,551.48032 671.42484,539.89356 C 671.57973,525.6605 657.13765,520.49617 645.21186,521.04697 C 634.11871,518.57985 639.42808,504.36079 635.40319,496.40141 C 621.56962,434.77447 587.93623,375.28179 534.3864,339.99002 C 518.18534,329.45402 500.3209,321.40036 481.56366,316.6795 C 476.08047,325.61248 460.3638,321.01674 458.03478,331.98041 C 445.70573,343.91778 435.00173,322.24433 444.43927,312.45153 C 436.44453,311.19461 427.44065,313.53222 419.12777,314.42532 C 369.50458,321.81476 326.57759,353.80971 297.84598,393.90697 C 276.54746,423.41562 262.0357,457.52061 253.22347,492.68268 C 252.67925,504.20618 248.75057,516.45789 235.24627,514.98746 C 219.27377,521.76897 217.2869,542.30277 220.21626,557.25516 C 220.78083,574.3877 241.4176,575.7179 246.48383,588.97703 C 245.80208,607.31836 249.91289,625.6648 253.82082,643.56218 C 267.95384,702.03171 300.42645,757.84581 350.61735,792.31115 C 385.1422,816.24624 428.50563,826.9662 470.09247,819.54889 z M 440.08258,758.09613 C 426.13459,756.4232 412.99838,751.59868 400.51447,745.33296 C 388.54888,740.61932 377.65904,734.16714 367.06388,726.93689 C 356.17053,720.28541 352.76159,707.27736 344.76707,697.93466 C 336.69942,683.31615 329.25981,667.62361 329.14816,650.524 C 326.24205,639.98877 329.8132,625.51326 326.83485,617.42256 C 315.99989,616.9752 304.26297,623.42675 294.11649,618.5061 C 288.74455,608.68032 308.57793,619.13479 313.98137,615.0922 C 327.23066,613.74603 340.67577,606.25117 345.47367,593.27235 C 347.26994,587.47962 355.83626,582.33824 351.51619,592.41716 C 348.29883,605.00763 332.52866,610.10042 331.47623,623.18603 C 331.7744,635.54528 332.61811,648.00123 334.32363,660.25895 C 335.87397,672.27328 342.1694,682.41943 347.55324,692.96639 C 356.27859,708.33564 366.71571,724.6063 383.86258,731.41797 C 395.59238,738.8846 408.65816,743.37982 421.26072,748.99715 C 433.19815,751.9316 445.95174,756.16112 458.05791,751.71427 C 475.83653,745.74261 492.84495,737.62107 508.09094,726.65893 C 520.21492,720.52225 528.85339,710.46025 535.12336,698.62414 C 541.57484,687.55141 547.18263,675.84904 550.9733,663.57656 C 554.46143,649.19789 553.58321,634.0604 553.60469,619.44828 C 552.84793,608.39666 547.45191,599.02559 538.92494,592.27929 C 534.40942,589.21821 526.30455,571.6407 535.89091,581.33526 C 543.12082,591.36135 552.45707,602.17766 566.16892,600.23955 C 577.96135,600.87324 590.53687,601.02137 601.18746,595.15717 C 609.79455,600.18867 590.29902,604.68964 585.59557,604.12548 C 576.43252,606.64463 560.50502,601.40962 555.58459,607.52694 C 559.00459,622.93916 557.9376,638.91138 556.84918,654.51953 C 553.73569,677.47625 541.01885,697.67878 528.85805,716.8229 C 517.47032,728.31806 502.73717,735.78391 488.92926,743.93267 C 475.28701,750.08544 461.37961,757.21169 446.28323,758.61694 C 444.20601,758.6698 442.12001,758.51159 440.08258,758.09613 z M 629.92889,575.49359 C 630.41288,565.84562 649.28134,582.33057 649.99598,567.99462 C 654.15848,559.26266 656.77033,536.44413 643.60695,536.77211 C 639.86437,538.80618 625.79871,547.49957 632.88046,537.40997 C 643.50983,526.36289 660.83329,534.58815 657.3781,550.12279 C 657.69221,561.34381 655.45858,579.90186 640.40977,578.28873 C 636.78354,578.28877 632.87977,577.80463 629.92889,575.49359 z M 238.10008,566.06903 C 230.29053,555.5709 226.1218,540.20033 234.1956,528.88625 C 238.54507,522.70487 256.30436,530.29066 247.96222,533.59865 C 233.84934,526.42519 230.55427,548.8666 237.41705,557.20722 C 239.30848,565.60652 248.19868,561.59983 250.98098,560.55906 C 253.65702,566.69062 241.34138,570.2317 238.10008,566.06903 z M 457.892,513.54956 C 444.49687,502.50287 471.14391,485.67374 475.9163,502.0577 C 480.30798,512.33013 465.20534,522.68539 457.892,513.54956 z M 418.892,504.54959 C 405.49686,493.5029 432.14389,476.67372 436.9163,493.0577 C 441.30797,503.33013 426.20537,513.68535 418.892,504.54959 z M 498.492,481.63766 C 492.72893,475.57794 472.4969,472.35818 475.24157,465.60517 C 485.25221,466.42509 501.37925,473.61125 503.4629,482.0735 C 501.99238,483.09915 499.84144,482.6533 498.492,481.63766 z M 391.82388,475.37204 C 399.11216,464.8027 413.09453,462.29754 424.18471,457.64772 C 429.00015,467.34915 409.33651,465.6964 404.62925,472.38972 C 400.88658,474.57989 396.24225,477.3921 391.82388,475.37204 z M 453.75336,330.19958 C 454.38453,315.61929 481.85356,323.84933 477.1699,306.25609 C 474.27056,299.62523 473.85285,290.54425 483.00059,290.37356 C 490.95344,278.88253 470.69532,270.98742 471.65794,260.1929 C 459.24934,256.70711 455.00408,275.81006 468.17729,278.20252 C 471.87154,286.84464 457.46172,295.21035 466.53961,303.88305 C 464.54446,315.31431 435.60016,313.28765 447.72274,330.57146 C 449.26675,332.5778 452.40633,332.30559 453.75336,330.19958 z "
           id="path1882" />
        <path
           style="fill:#000000"
           d="M 440.08258,758.09613 C 426.13459,756.4232 412.99838,751.59868 400.51447,745.33296 C 388.54888,740.61932 377.65904,734.16714 367.06388,726.93689 C 356.17053,720.28541 352.76159,707.27736 344.76707,697.93466 C 336.69942,683.31615 329.25981,667.62361 329.14816,650.524 C 326.24205,639.98877 329.8132,625.51326 326.83485,617.42256 C 315.99989,616.9752 304.26297,623.42675 294.11649,618.5061 C 288.74455,608.68032 308.57793,619.13479 313.98137,615.0922 C 327.23066,613.74603 340.67577,606.25117 345.47367,593.27235 C 347.26994,587.47962 355.83626,582.33824 351.51619,592.41716 C 348.29883,605.00763 332.52866,610.10042 331.47623,623.18603 C 331.7744,635.54528 332.61811,648.00123 334.32363,660.25895 C 335.87397,672.27328 342.1694,682.41943 347.55324,692.96639 C 356.27859,708.33564 366.71571,724.6063 383.86258,731.41797 C 395.59238,738.8846 408.65816,743.37982 421.26072,748.99715 C 433.19815,751.9316 445.95174,756.16112 458.05791,751.71427 C 475.83653,745.74261 492.84495,737.62107 508.09094,726.65893 C 520.21492,720.52225 528.85339,710.46025 535.12336,698.62414 C 541.57484,687.55141 547.18263,675.84904 550.9733,663.57656 C 554.46143,649.19789 553.58321,634.0604 553.60469,619.44828 C 552.84793,608.39666 547.45191,599.02559 538.92494,592.27929 C 534.40942,589.21821 526.30455,571.6407 535.89091,581.33526 C 543.12082,591.36135 552.45707,602.17766 566.16892,600.23955 C 577.96135,600.87324 590.53687,601.02137 601.18746,595.15717 C 609.79455,600.18867 590.29902,604.68964 585.59557,604.12548 C 576.43252,606.64463 560.50502,601.40962 555.58459,607.52694 C 559.00459,622.93916 557.9376,638.91138 556.84918,654.51953 C 553.73569,677.47625 541.01885,697.67878 528.85805,716.8229 C 517.47032,728.31806 502.73717,735.78391 488.92926,743.93267 C 475.28701,750.08544 461.37961,757.21169 446.28323,758.61694 C 444.20601,758.6698 442.12001,758.51159 440.08258,758.09613 z "
           id="path1908" />
        <path
           style="fill:#000000"
           d="M 629.92889,575.49359 C 630.41288,565.84562 649.28134,582.33057 649.99598,567.99462 C 654.15848,559.26266 656.77033,536.44413 643.60695,536.77211 C 639.86437,538.80618 625.79871,547.49957 632.88046,537.40997 C 643.50983,526.36289 660.83329,534.58815 657.3781,550.12279 C 657.69221,561.34381 655.45858,579.90186 640.40977,578.28873 C 636.78354,578.28877 632.87977,577.80463 629.92889,575.49359 z "
           id="path1906" />
        <path
           style="fill:#000000"
           d="M 238.10008,566.06903 C 230.29053,555.5709 226.1218,540.20033 234.1956,528.88625 C 238.54507,522.70487 256.30436,530.29066 247.96222,533.59865 C 233.84934,526.42519 230.55427,548.8666 237.41705,557.20722 C 239.30848,565.60652 248.19868,561.59983 250.98098,560.55906 C 253.65702,566.69062 241.34138,570.2317 238.10008,566.06903 z "
           id="path1904" />
        <path
           style="fill:#000000"
           d="M 457.892,513.54956 C 444.49687,502.50287 471.14391,485.67374 475.9163,502.0577 C 480.30798,512.33013 465.20534,522.68539 457.892,513.54956 z "
           id="path1902" />
        <path
           style="fill:#000000"
           d="M 418.892,504.54959 C 405.49686,493.5029 432.14389,476.67372 436.9163,493.0577 C 441.30797,503.33013 426.20537,513.68535 418.892,504.54959 z "
           id="path1900" />
        <path
           style="fill:#000000"
           d="M 498.492,481.63766 C 492.72893,475.57794 472.4969,472.35818 475.24157,465.60517 C 485.25221,466.42509 501.37925,473.61125 503.4629,482.0735 C 501.99238,483.09915 499.84144,482.6533 498.492,481.63766 z "
           id="path1898" />
        <path
           style="fill:#000000"
           d="M 391.82388,475.37204 C 399.11216,464.8027 413.09453,462.29754 424.18471,457.64772 C 429.00015,467.34915 409.33651,465.6964 404.62925,472.38972 C 400.88658,474.57989 396.24225,477.3921 391.82388,475.37204 z "
           id="path1896" />
        <path
           style="fill:#947968;fill-opacity:1"
           d="M 453.75336,330.19958 C 454.38453,315.61929 481.85356,323.84933 477.1699,306.25609 C 474.27056,299.62523 473.85285,290.54425 483.00059,290.37356 C 490.95344,278.88253 470.69532,270.98742 471.65794,260.1929 C 459.24934,256.70711 455.00408,275.81006 468.17729,278.20252 C 471.87154,286.84464 457.46172,295.21035 466.53961,303.88305 C 464.54446,315.31431 435.60016,313.28765 447.72274,330.57146 C 449.26675,332.5778 452.40633,332.30559 453.75336,330.19958 z "
           id="path1892" />
      </g>
    </g>
  </g>
</svg>
