<?xml version="1.0" encoding="UTF-8" standalone="no"?>
<!-- Created with Inkscape (http://www.inkscape.org/) -->
<svg
   xmlns:dc="http://purl.org/dc/elements/1.1/"
   xmlns:cc="http://web.resource.org/cc/"
   xmlns:rdf="http://www.w3.org/1999/02/22-rdf-syntax-ns#"
   xmlns:svg="http://www.w3.org/2000/svg"
   xmlns="http://www.w3.org/2000/svg"
   xmlns:xlink="http://www.w3.org/1999/xlink"
   xmlns:sodipodi="http://sodipodi.sourceforge.net/DTD/sodipodi-0.dtd"
   xmlns:inkscape="http://www.inkscape.org/namespaces/inkscape"
   width="335.25159"
   height="538.43225"
   id="svg2"
   inkscape:label="Pozad  "
   sodipodi:version="0.32"
   inkscape:version="0.44.1"
   sodipodi:docbase="D:\_petr_\School\INKSCAPE\svg\05.Ovoce, zelenina, jidlo"
   sodipodi:docname="mrkev_1.svg"
   version="1.0">
  <defs
     id="defs3">
    <linearGradient
       inkscape:collect="always"
       id="linearGradient4544">
      <stop
         style="stop-color:white;stop-opacity:1;"
         offset="0"
         id="stop4546" />
      <stop
         style="stop-color:white;stop-opacity:0;"
         offset="1"
         id="stop4548" />
    </linearGradient>
    <linearGradient
       inkscape:collect="always"
       xlink:href="#linearGradient4544"
       id="linearGradient4554"
       x1="-5.3221316"
       y1="673.55499"
       x2="412.41364"
       y2="537.18439"
       gradientUnits="userSpaceOnUse"
       gradientTransform="translate(140.0201,293.2065)" />
  </defs>
  <sodipodi:namedview
     id="base"
     pagecolor="#ffffff"
     bordercolor="#666666"
     borderopacity="1.0"
     inkscape:pageopacity="0.0"
     inkscape:pageshadow="2"
     inkscape:zoom="0.98994949"
     inkscape:cx="348.04681"
     inkscape:cy="314.22317"
     inkscape:document-units="px"
     inkscape:current-layer="layer1"
     inkscape:window-width="1024"
     inkscape:window-height="708"
     inkscape:window-x="-4"
     inkscape:window-y="-4" />
  <metadata
     id="metadata6">
    <rdf:RDF>
      <cc:Work
         rdf:about="">
        <dc:format>image/svg+xml</dc:format>
        <dc:type
           rdf:resource="http://purl.org/dc/dcmitype/StillImage" />
        <cc:license
           rdf:resource="http://web.resource.org/cc/PublicDomain" />
        <dc:title>mrkev</dc:title>
        <dc:creator>
          <cc:Agent>
            <dc:title />
          </cc:Agent>
        </dc:creator>
        <dc:publisher>
          <cc:Agent>
            <dc:title>ZS a MS Machovo nam.</dc:title>
          </cc:Agent>
        </dc:publisher>
        <dc:language>cz</dc:language>
        <dc:subject>
          <rdf:Bag>
            <rdf:li>mrkev</rdf:li>
          </rdf:Bag>
        </dc:subject>
      </cc:Work>
      <cc:License
         rdf:about="http://web.resource.org/cc/PublicDomain">
        <cc:permits
           rdf:resource="http://web.resource.org/cc/Reproduction" />
        <cc:permits
           rdf:resource="http://web.resource.org/cc/Distribution" />
        <cc:permits
           rdf:resource="http://web.resource.org/cc/DerivativeWorks" />
      </cc:License>
    </rdf:RDF>
  </metadata>
  <g
     inkscape:label="Vrstva 1"
     inkscape:groupmode="layer"
     id="layer1"
     transform="translate(-140.0201,-293.2065)">
    <g
       id="g2557"
       inkscape:export-filename="/media/KINGSTON/inkscape/8.b/Nebesky Adam/mrkev.png"
       inkscape:export-xdpi="90"
       inkscape:export-ydpi="90">
      <path
         style="fill:black;fill-opacity:1;fill-rule:evenodd;stroke:black;stroke-width:1.20089245px;stroke-linecap:butt;stroke-linejoin:miter;stroke-opacity:1"
         d="M 142.56491,293.80696 C 125.55363,370.76047 225.46268,641.40007 236.3409,679.27065 C 270.26169,810.09061 459.52512,762.73508 422.24825,685.17901 C 356.1483,551.52644 160.99424,409.17662 142.56491,293.80696 z "
         id="path2762"
         sodipodi:nodetypes="cccc" />
      <path
         sodipodi:nodetypes="cccc"
         id="path1873"
         d="M 146.05152,317.0662 C 134.49793,391.51754 233.41526,645.83483 244.54671,681.56751 C 279.80439,805.17454 443.11479,750.9389 407.21476,678.46741 C 343.72266,553.66478 167.11126,426.61568 146.05152,317.0662 z "
         style="fill:#eb9500;fill-opacity:1;fill-rule:evenodd;stroke:black;stroke-width:1.09942508px;stroke-linecap:butt;stroke-linejoin:miter;stroke-opacity:1" />
      <g
         transform="translate(-163.6447,174.7564)"
         id="g3653">
        <path
           id="path3651"
           d="M 511.14583,581.7423 L 574.71276,540.35157 L 638.27968,620.37367 L 592.7034,581.7423 L 604.69715,624.51274 L 595.10214,628.65181 L 574.71276,598.29859 L 589.10526,636.92997 L 569.91526,621.75335 L 571.11463,649.34719 L 559.12088,647.9675 L 525.53835,603.81738 L 531.53523,646.58781 L 519.54146,631.4112 L 503.94958,656.24565 L 499.15209,647.9675 L 511.14583,581.7423 z "
           style="fill:#22280b;fill-rule:evenodd;stroke:black;stroke-width:1.27344954px;stroke-linecap:butt;stroke-linejoin:miter;stroke-opacity:1" />
        <path
           style="fill:#8dd35f;fill-rule:evenodd;stroke:black;stroke-width:1px;stroke-linecap:butt;stroke-linejoin:miter;stroke-opacity:1"
           d="M 517.1981,578.60063 L 570.73619,548.29606 L 624.27427,606.88491 L 585.88848,578.60063 L 595.99,609.91536 L 587.90878,612.94582 L 570.73619,590.72246 L 582.85802,619.00674 L 566.69558,607.89506 L 567.70573,628.09811 L 557.60421,627.08796 L 529.31993,594.76308 L 534.3707,626.0778 L 524.26917,614.96613 L 511.13719,633.14887 L 507.09658,627.08796 L 517.1981,578.60063 z "
           id="path3649" />
      </g>
      <path
         sodipodi:nodetypes="cccc"
         id="path4556"
         d="M 415.58844,680.45435 C 401.2297,710.87571 376.85015,728.41648 349.95238,737.22158 C 381.59267,719.33992 399.34699,697.05086 407.80606,675.33877 L 415.58844,680.45435 z "
         style="fill:black;fill-opacity:1;fill-rule:evenodd;stroke:black;stroke-width:1px;stroke-linecap:butt;stroke-linejoin:miter;stroke-opacity:1" />
      <path
         sodipodi:nodetypes="cccc"
         id="path5443"
         d="M 401.65369,660.5809 C 390.57659,692.34456 379.29032,697.20159 353.46869,712.82942 C 379.01057,688.68644 387.24925,678.79466 393.37611,656.31284 L 401.65369,660.5809 z "
         style="fill:black;fill-opacity:1;fill-rule:evenodd;stroke:black;stroke-width:1px;stroke-linecap:butt;stroke-linejoin:miter;stroke-opacity:1" />
      <path
         sodipodi:nodetypes="cccc"
         id="path5445"
         d="M 394.80751,643.20803 C 382.34212,672.68841 369.64136,677.1963 340.58355,691.70075 C 369.32656,669.29325 378.59778,660.11253 385.49252,639.24675 L 394.80751,643.20803 z "
         style="fill:black;fill-opacity:1;fill-rule:evenodd;stroke:black;stroke-width:1.02197647px;stroke-linecap:butt;stroke-linejoin:miter;stroke-opacity:1" />
      <path
         sodipodi:nodetypes="cccc"
         id="path5447"
         d="M 380.49662,624.23603 C 358.72417,657.13087 347.351,660.31963 319.55588,672.59375 C 350.46298,650.87755 361.25927,641.55274 375.23272,617.94143 L 380.49662,624.23603 z "
         style="fill:black;fill-opacity:1;fill-rule:evenodd;stroke:black;stroke-width:1px;stroke-linecap:butt;stroke-linejoin:miter;stroke-opacity:1" />
      <path
         sodipodi:nodetypes="cccc"
         id="path5449"
         d="M 360.84153,599.20768 C 346.33076,635.88939 335.86114,641.35787 311.19952,659.10688 C 336.95636,631.47669 345.5945,620.12351 354.3913,594.13568 L 360.84153,599.20768 z "
         style="fill:black;fill-opacity:1;fill-rule:evenodd;stroke:black;stroke-width:1px;stroke-linecap:butt;stroke-linejoin:miter;stroke-opacity:1" />
      <path
         sodipodi:nodetypes="cccc"
         id="path5451"
         d="M 349.5162,588.65553 C 329.9144,617.35905 321.43155,618.52513 300.13774,625.80261 C 324.82825,609.73861 333.67126,602.4089 346.56532,581.51734 L 349.5162,588.65553 z "
         style="fill:black;fill-opacity:1;fill-rule:evenodd;stroke:black;stroke-width:0.85094601px;stroke-linecap:butt;stroke-linejoin:miter;stroke-opacity:1" />
      <path
         sodipodi:nodetypes="cccc"
         id="path5453"
         d="M 338.07403,565.91968 C 325.86366,593.02539 317.05379,597.0663 296.30178,610.18182 C 317.97538,589.76466 325.24412,581.3753 332.64635,562.17175 L 338.07403,565.91968 z "
         style="fill:black;fill-opacity:1;fill-rule:evenodd;stroke:black;stroke-width:0.78854221px;stroke-linecap:butt;stroke-linejoin:miter;stroke-opacity:1" />
      <path
         sodipodi:nodetypes="cccc"
         id="path5455"
         d="M 322.865,550.31019 C 306.84921,577.35183 295.29371,581.38319 268.07425,594.46771 C 296.50252,574.09881 306.03659,565.72928 315.74576,546.57112 L 322.865,550.31019 z "
         style="fill:black;fill-opacity:1;fill-rule:evenodd;stroke:black;stroke-width:0.90202945px;stroke-linecap:butt;stroke-linejoin:miter;stroke-opacity:1" />
      <path
         sodipodi:nodetypes="cccc"
         id="path5457"
         d="M 314.48469,541.93356 C 290.11295,567.56666 278.86335,568.40861 250.89589,574.48414 C 282.84863,560.49443 294.19428,554.04834 310.10051,535.35591 L 314.48469,541.93356 z "
         style="fill:black;fill-opacity:1;fill-rule:evenodd;stroke:black;stroke-width:0.93758261px;stroke-linecap:butt;stroke-linejoin:miter;stroke-opacity:1" />
      <path
         sodipodi:nodetypes="cccc"
         id="path5459"
         d="M 292.41375,525.20807 C 268.04201,550.84117 256.79241,551.68312 228.82495,557.75865 C 260.77769,543.76894 272.12334,537.32285 288.02957,518.63042 L 292.41375,525.20807 z "
         style="fill:black;fill-opacity:1;fill-rule:evenodd;stroke:black;stroke-width:0.93758261px;stroke-linecap:butt;stroke-linejoin:miter;stroke-opacity:1" />
      <path
         sodipodi:nodetypes="cccc"
         id="path5461"
         d="M 281.42667,513.317 C 259.2824,528.52525 249.06096,529.02478 223.64959,532.62943 C 252.682,524.32926 262.99071,520.50476 277.44318,509.41445 L 281.42667,513.317 z "
         style="fill:black;fill-opacity:1;fill-rule:evenodd;stroke:black;stroke-width:0.6883924px;stroke-linecap:butt;stroke-linejoin:miter;stroke-opacity:1" />
      <path
         sodipodi:nodetypes="cccc"
         id="path5463"
         d="M 267.77517,498.09252 C 248.34376,512.12218 225.72217,516.2207 203.97065,514.64428 C 231.84484,512.14842 251.21177,503.66233 263.81157,493.20576 L 267.77517,498.09252 z "
         style="fill:black;fill-opacity:1;fill-rule:evenodd;stroke:black;stroke-width:0.69668663px;stroke-linecap:butt;stroke-linejoin:miter;stroke-opacity:1" />
      <path
         sodipodi:nodetypes="cccc"
         id="path5465"
         d="M 255.12844,473.11218 C 234.55909,492.90782 225.06461,493.55803 201.46052,498.24997 C 228.42812,487.44616 238.00366,482.46804 251.42826,468.03247 L 255.12844,473.11218 z "
         style="fill:black;fill-opacity:1;fill-rule:evenodd;stroke:black;stroke-width:0.75693882px;stroke-linecap:butt;stroke-linejoin:miter;stroke-opacity:1" />
      <path
         sodipodi:nodetypes="cccc"
         id="path5467"
         d="M 238.35271,457.25749 C 228.61933,479.49099 218.70217,482.89075 196.01287,493.82972 C 218.45635,476.93043 225.69562,470.00651 231.07925,454.26998 L 238.35271,457.25749 z "
         style="fill:black;fill-opacity:1;fill-rule:evenodd;stroke:black;stroke-width:0.78425515px;stroke-linecap:butt;stroke-linejoin:miter;stroke-opacity:1" />
      <path
         sodipodi:nodetypes="cccc"
         id="path5469"
         d="M 221.2276,435.22269 C 214.25905,459.21275 207.15891,462.88111 190.91465,474.6843 C 206.98292,456.44989 212.16584,448.97895 216.02021,431.99916 L 221.2276,435.22269 z "
         style="fill:black;fill-opacity:1;fill-rule:evenodd;stroke:black;stroke-width:0.68930054px;stroke-linecap:butt;stroke-linejoin:miter;stroke-opacity:1" />
      <path
         sodipodi:nodetypes="cccc"
         id="path5471"
         d="M 207.0923,419.83575 C 199.88837,442.13029 192.54842,445.5394 175.75549,456.5084 C 192.36649,439.56271 197.72446,432.61978 201.70903,416.84002 L 207.0923,419.83575 z "
         style="fill:black;fill-opacity:1;fill-rule:evenodd;stroke:black;stroke-width:0.67562467px;stroke-linecap:butt;stroke-linejoin:miter;stroke-opacity:1" />
      <path
         sodipodi:nodetypes="cccc"
         id="path5473"
         d="M 195.76397,399.7898 C 188.20701,420.75919 182.75461,423.8853 169.91124,434.03166 C 183.32497,418.23663 187.82358,411.74651 192.40479,396.89035 L 195.76397,399.7898 z "
         style="fill:black;fill-opacity:1;fill-rule:evenodd;stroke:black;stroke-width:0.54562789px;stroke-linecap:butt;stroke-linejoin:miter;stroke-opacity:1" />
      <path
         sodipodi:nodetypes="cccc"
         id="path5475"
         d="M 179.49646,382.45215 C 171.21705,403.74092 167.39541,404.44017 157.89449,409.48602 C 168.74926,397.8673 172.60353,392.5137 178.00709,376.98928 L 179.49646,382.45215 z "
         style="fill:black;fill-opacity:1;fill-rule:evenodd;stroke:black;stroke-width:0.4980129px;stroke-linecap:butt;stroke-linejoin:miter;stroke-opacity:1" />
      <path
         sodipodi:nodetypes="cccc"
         id="path5477"
         d="M 170.52198,372.91739 C 164.47594,381.1242 161.68519,381.39376 154.74714,383.33893 C 162.67384,378.85992 165.48842,376.79612 169.43436,370.81147 L 170.52198,372.91739 z "
         style="fill:black;fill-opacity:1;fill-rule:evenodd;stroke:black;stroke-width:0.26423359px;stroke-linecap:butt;stroke-linejoin:miter;stroke-opacity:1" />
      <path
         sodipodi:nodetypes="cccc"
         id="path5479"
         d="M 161.9399,356.24708 C 156.2778,364.45942 153.66426,364.72916 147.16678,366.67564 C 154.59013,362.19361 157.22598,360.12842 160.92136,354.13974 L 161.9399,356.24708 z "
         style="fill:black;fill-opacity:1;fill-rule:evenodd;stroke:black;stroke-width:0.25579265px;stroke-linecap:butt;stroke-linejoin:miter;stroke-opacity:1" />
      <path
         sodipodi:nodetypes="cccc"
         id="path3657"
         d="M 146.1274,318.18683 C 143.66518,392.63817 261.77541,639.88439 272.90686,675.61707 C 321.29652,763.86876 438.13991,734.88694 407.29064,679.58804 C 343.79854,554.78541 167.18714,427.73631 146.1274,318.18683 z "
         style="opacity:0.84507027;fill:url(#linearGradient4554);fill-opacity:1;fill-rule:evenodd;stroke:none;stroke-width:1.09942508px;stroke-linecap:butt;stroke-linejoin:miter;stroke-opacity:1" />
    </g>
  </g>
</svg>
