<?xml version="1.0" encoding="utf-8"?>
<!-- Generator: Adobe Illustrator 12.0.1, SVG Export Plug-In . SVG Version: 6.00 Build 51448)  -->
<!DOCTYPE svg PUBLIC "-//W3C//DTD SVG 1.1//EN" "http://www.w3.org/Graphics/SVG/1.1/DTD/svg11.dtd" [
	<!ENTITY ns_svg "http://www.w3.org/2000/svg">
	<!ENTITY ns_xlink "http://www.w3.org/1999/xlink">
]>
<svg  version="1.1" id="Layer_1" xmlns="&ns_svg;" xmlns:xlink="&ns_xlink;" width="339.522" height="322.358"
	 viewBox="0 0 339.522 322.358" overflow="visible" enable-background="new 0 0 339.522 322.358" xml:space="preserve">
<g>
	<path fill-rule="evenodd" clip-rule="evenodd" fill="#F1E5C8" d="M210.651,294.936c0,0,6.888-18.368,6.888-30.421
		c0-12.054-8.61-34.439-8.61-34.439s-4.018-24.107-5.165-32.717c-1.148-8.609,0-23.533,0-23.533l-52.233-25.255l-28.125,30.421
		c0,0,6.314,27.551,8.036,38.457c1.722,10.905-10.332,41.326-10.332,41.326l-16.071,38.457l-0.574,11.479l44.771-1.148l40.752-4.018
		L210.651,294.936z"/>
	<g>
		<path fill="none" d="M115.788,304.736C115.838,304.669,115.829,304.671,115.788,304.736L115.788,304.736z"/>
		<path fill="#5C8727" d="M273.071,314.741c-12.102-5.953-25.235-8.739-38.569-10.145c1.621-2.271,3.366-6.605,0.025-5.961
			c-2.588,0.499-5.211,0.85-7.846,0.974c-0.079-1.052-0.174-2.125,0.115-2.904c0.436-1.181,1.09-3.656-0.79-3.928
			c-2.726-0.395-4.983,0.951-6.889,2.789c-1.657,1.6-2.721,4.022-4.549,5.405c-1.897,1.437-5.182,1.395-6.585-0.591
			c-1.638-2.318-2.355-5.222-3.946-7.605c-0.797-1.194-2.36-0.242-3.094,0.498c-1.167,1.177-2.011,2.501-2.717,3.913
			c-1.019,0.188-2.027,0.426-3.028,0.699c0.163-0.58,0.368-1.155,0.599-1.745c0.13-0.331,0.246-0.667,0.33-1.009
			c0.038-0.16,0.065-0.354,0.082-0.563c0.131-0.891,0.075-1.833-0.565-2.202c-0.263-0.231-0.632-0.3-1.128-0.108
			c-0.47,0.1-0.914,0.346-1.32,0.681c-4.044,2.344-6.76,6.08-10.526,8.776c-0.67-4.513-1.613-12.692-6.422-12.979
			c-3.352-0.199-6.036,4.038-7.395,6.501c-0.863,1.566-1.567,3.228-2.239,4.883c-0.27,0.666-0.532,1.336-0.799,2.004
			c-1.942,0.007-3.894-0.004-5.779-0.226c-1.848-0.217-3.655-1.173-5.322-1.941c-3.225-1.487-6.535-3.342-10.161-3.504
			c-4.098-0.185-6.874,3.273-8.641,6.587c-5.356,0.473-10.995-0.281-14.527-3.95c-2.121-2.202-4.917,2.563-5.267,4.262
			c-0.115,0.558-0.211,0.972-0.396,1.467c-0.065,0.074-0.163,0.18-0.306,0.315c-0.673,0.638-1.95,0.793-2.827,0.863
			c-2.704,0.222-5.23-0.998-7.247-2.699c-1.159-0.979-1.758-1.934-1.573-3.443c0.223-1.822,0.342-3.278-0.581-4.929
			c-1.918-3.434-5.854-5.645-8.625-8.309c-2.024-1.946-5.516,4.729-4.952,6.404c0.694,2.062,1.505,4.181,2.076,6.336
			c-2.554-1.62-5.084-3.317-8.03-4.131c-2.633-0.727-5.768,4.049-4.952,6.404c0.41,1.186,0.935,2.216,1.697,3.062
			c-3.471,0.276-6.942,0.553-10.414,0.829c-6.771-0.016-13.465,0.423-20.129,1.601c-0.022,0.002-0.044,0.004-0.066,0.006
			c0,0.002-0.001,0.004-0.002,0.006c-0.22,0.039-0.44,0.071-0.66,0.112c-2.3,0.426-5.533,7.885-2.498,7.644
			c6.732-0.535,13.463-1.071,20.195-1.606c16.681,0.144,33.262,1.563,49.963,1.254c16.808-0.312,33.499-0.716,50.3,0.104
			c34.143,1.668,68.266,3.951,102.246,7.71C271.75,322.617,275.689,316.029,273.071,314.741z M115.788,304.736
			C115.829,304.671,115.838,304.669,115.788,304.736L115.788,304.736z"/>
	</g>
	<g>
		<path fill-rule="evenodd" clip-rule="evenodd" d="M222.705,38.94c1.965,0.535,6.19,3.361,8.609,3.444
			C239.682,55.479,211.087,53.455,222.705,38.94z M230.166,45.828c-0.961-2.483-4.357-2.531-6.313-4.018
			C218.93,48.594,230.93,52.42,230.166,45.828z"/>
		<path fill-rule="evenodd" clip-rule="evenodd" d="M110.778,52.716c-3.268,0.953-1.58,5.476-8.036,5.166
			c0.104-1.252-0.47-1.826-1.722-1.722c-0.736-4.894-1.96-9.694,2.87-12.054c0.898-0.439,0.389,0.182,0.574,0
			c4.929-4.868,6.396-1.851,8.036,5.166C111.515,47.617,110.587,52.201,110.778,52.716z M105.039,55.012
			c2.999-3.253,2.799-4.319,4.592-7.462c-1.17-0.169-1.125-1.553-2.296-1.722C105.044,47.869,100.082,52.35,105.039,55.012z"/>
		<path fill-rule="evenodd" clip-rule="evenodd" fill="#F1E5C8" d="M223.853,41.81c1.956,1.487,5.353,1.535,6.313,4.018
			C230.93,52.42,218.93,48.594,223.853,41.81z"/>
		<path fill-rule="evenodd" clip-rule="evenodd" fill="#F1E5C8" d="M107.334,45.828c1.17,0.169,1.125,1.553,2.296,1.722
			c-1.793,3.143-1.593,4.208-4.592,7.462C100.082,52.35,105.044,47.869,107.334,45.828z"/>
		<path fill-rule="evenodd" clip-rule="evenodd" fill="#F1E5C8" d="M239.924,60.751c2.159-1.45,2.424,0.499,5.166,0.574
			c1.577,3.335,1.407,6.293-4.018,6.313C239.537,66.232,239.187,62.464,239.924,60.751z"/>
		<path fill-rule="evenodd" clip-rule="evenodd" fill="#F1E5C8" d="M224.427,72.231c2.875,1.741,4.466,7.05,5.739,9.758
			c-2.088,4.595-5.963,0.608-8.609-1.722C221.643,77.877,223.098,74.736,224.427,72.231z"/>
		<path fill-rule="evenodd" clip-rule="evenodd" d="M260.014,87.729c5.091-0.363,13.1,8.583,12.627,13.202
			C265.621,111.755,252.695,97.646,260.014,87.729z M262.883,102.078c7.35,1.57,8.229-3.503,4.592-8.036
			c-2.506-0.222-2.616-3.821-5.739-2.296C260.37,93.724,259.075,99.672,262.883,102.078z"/>
		<path fill-rule="evenodd" clip-rule="evenodd" fill="#F1E5C8" d="M261.735,91.747c3.123-1.525,3.233,2.074,5.739,2.296
			c3.638,4.533,2.758,9.605-4.592,8.036C259.075,99.672,260.37,93.724,261.735,91.747z"/>
		<path fill-rule="evenodd" clip-rule="evenodd" fill="#F1E5C8" d="M130.293,118.724c0.909,4.14,4.321,7.953,7.462,10.906
			c-4.986,4.292-7.639-1.79-12.627-2.296c0.689-0.659,0.224-1.455,0-0.574c-5.4-3.669-14.398-12.08-16.072-17.793
			c4.787-1.702,8.533,2.075,15.498-0.574c1.646,3.404,2.476,6.326,4.592,8.036C128.571,118.382,128.39,118.384,130.293,118.724z"/>
		<path fill-rule="evenodd" clip-rule="evenodd" fill="#F1E5C8" d="M169.324,121.02c-2.3,3.494-3.641,9.703-10.905,9.758
			c0.87-1.9-3.192-3.121-5.166-4.018c0.773-3.473-1.347-6.395-0.574-8.036c5.653-0.443,8.61,1.333,13.202,0
			C164.543,120.184,167.725,119.718,169.324,121.02z"/>
		<path fill-rule="evenodd" clip-rule="evenodd" fill="#F1E5C8" d="M173.916,122.741c3.745,0.721,6.125,2.567,11.479,2.87
			c-3.475,3.202-6.019,7.813-11.479,7.462c-0.459-2.411-3.073-2.667-3.444-5.166C171.847,126.971,171.474,124.779,173.916,122.741z"
			/>
		<path fill-rule="evenodd" clip-rule="evenodd" fill="#FFFFFF" d="M158.993,209.413c3.945,1.234,6.573,9.345,2.296,12.054
			C154.631,219.769,156.83,213.014,158.993,209.413z"/>
		<path fill-rule="evenodd" clip-rule="evenodd" d="M140.051,221.466c1.095,0.244,1.039,1.64,2.87,1.147
			c1.138,6.89,2.445,7.726-1.722,13.202c-0.957,0-1.913,0-2.87,0C135.418,230.795,136.58,225.432,140.051,221.466z M138.903,232.946
			c3.438-0.062,4.14-5.685,1.722-6.888C138.204,228.931,139.8,230.706,138.903,232.946z"/>
		<path fill-rule="evenodd" clip-rule="evenodd" fill="#FFFFFF" d="M140.625,226.058c2.417,1.203,1.716,6.825-1.722,6.888
			C139.8,230.706,138.204,228.931,140.625,226.058z"/>
		<path fill-rule="evenodd" clip-rule="evenodd" d="M87.245,12.537c0.651,0.109,0.319,0.576,0,0.574
			c17.087-8.657,32.97-17.281,53.38-10.905c0.105,0.488-0.224,0.542-0.574,0.574c3.066,0.293,5.698,3.148,8.036,4.018
			c8.312,3.093,16.495,1.13,25.255,0.574c12.644-0.802,24.788,3.396,37.31,7.462c6.831,2.219,19.212,7.835,24.681,11.479
			c8.499,5.663,20.363,12.383,26.403,21.812c1.199-0.243,1.521,0.393,2.296,0.574c-0.109,0.652-0.576,0.319-0.574,0
			c4.69,6.075,9.9,17.175,15.498,26.403c-0.255,0.834-0.504-0.059-1.148,0c10.805,11.821,26.558,16.906,34.439,29.273
			c2.194,3.444,1.809,5.939,5.165,8.036c-1.27,0.827,0.723,1.4-0.573,1.722c0.32,1.296,0.895-0.696,1.722,0.574
			c0.827,11.053,10.469,17.912,14.35,24.107c6.454,10.305,7.758,16.536,5.739,32.143c-6.492,6.371-3.879,18.162-12.054,23.533
			c-5.461,3.589-7.183,12.173-14.349,13.775c1.448,1.731-4.801,3.02-4.019,4.019c-4.673,4.556-10.754,4.06-14.923,5.166
			c-9.334,2.476-14.386,5.407-26.403,0c-8.367,6.759-21.09,7.653-27.552,2.869c-11.023,3.949-20.273,0.935-28.698-6.313
			c-1.053,11.836,9.774,28.691,13.201,44.196c1.229,12.396-1.206,21.744-4.018,31.569c4.556-0.026,9.283,0.542,12.627,2.87
			c-1.02,1.2,0.451,2.157-0.573,2.869c3.058,1.669,7.913,1.814,8.035,5.166c4.823-0.498,9.016,0.183,12.628,4.018
			c0.655,4.741-1.735,8.271,1.722,6.889c1.969-0.788,9.657,3.331,15.498,2.869c0.493,0.463,0.34,1.572,1.147,1.723
			c-7.624,2.558-14.736-3.402-19.516-1.148c1.304,1.838-4.626,5.579-5.739,1.722c1.276-3.365,5.267-4.933,4.018-8.035
			c-2.416-6.001-12.517,0.176-15.497-0.574c1.079-3.24,5.697-7.068,0.573-8.036c0.227,0.043-8.011,4.037-9.758,7.462
			c-4.199-4.377,5.824-8.057,4.019-14.35c-3.904,0.976-11.635,4.082-13.775,9.184c-2.062,0.609-4.173-0.129-3.444,0.574
			c-3.727,1.33-1.799-5.8-5.739-4.592c-1.313-5.701-4.201-6.103-8.036-2.296c0.404,1.911-1.229,5.728-0.574,12.054
			c-3.23-0.787-5.042-2.994-7.462-4.592c-2.948,2.316-3.325,1.937-5.165,4.592c0.736,1.531,1.542,2.102,1.722,2.87
			c-1.266,2.083-2.103,1.231-4.018,2.87c-1.965,0.242-1.726-1.72-2.87-2.296c-1.439,1.622-2.473,3.649-4.019,5.165
			c-1.006-0.524-1.994-1.067-1.722-2.869c1.545-0.235,6.062-5.491,5.166-9.185c3.041-3.885,1.377-8.166-1.148-13.201
			c-10.626,3.923-10.752,13.131-13.775,21.812c-2.085-2.242-3.725-5.026-4.018-6.313c-2.095-0.51-3.057,1.014-4.018,0
			c0.056,2.622-0.575,5.932,1.722,6.313c-0.392,1.713-2.285,1.924-4.592,1.722c-1.692-2.883-2.327-2.149-3.444-4.018
			c-2.945,0.917-4.857,4.727-4.592,4.592c-2.719,1.378-4.924,1.86-5.166-0.574c-0.2-2.012,3.753-2.995,5.166-5.166
			c2.802-4.304-0.246-8.952-2.296-12.054c-2.85,0.564-7.583,4.511-6.888,7.462c-3.373,0.05-1.203,6.6-4.592,8.036
			c-0.96-7.354-2.329-8.31-8.036-9.758c-2.023,2.771-1.533,2.998-0.574,6.313c-0.827-0.643-1.4-0.618-1.722,0.574
			c-3.322-6.145-9.392-1.238-13.202-3.443c-2.021,1.673-0.696,3.818-2.296,5.165c-3.322-2.137-1.375-4.697-1.148-6.313
			c0.245-1.12,1.64,0.938,1.148-1.722c8.17-2.188,14.083,3.538,18.941-4.019c0.815-0.049,1.625-0.095,1.722,0.574
			c0.558-0.016,0.445-0.703,0.574-1.147c3.083,0.981,4.953,1.228,6.888,2.296c3.472-2.362,4.662-6.322,9.184-5.74
			c3.788,0.487,6.591,3.73,8.036,8.036c2.381-0.7,6.721-1.212,8.61,0c3.7-6.301,5.451-11.012,11.479-14.924
			c0.835,0.255-0.058,0.504,0,1.148c8.219-6.668,12.417,4.273,11.48,12.627c2.161-0.652,2.613,0.55,3.443-1.147
			c0.834,0.254-0.059,0.504,0,1.147c1.556-1.258,1.429-0.636,3.444-1.147c0.537-5.835,6.766-13.494,14.35-10.906
			c5.471-8.34,8.561-15.805,10.331-24.106c1.28-6.005-0.181-14.307-1.722-20.664c-1.496-6.171-7.104-11.532-9.184-17.219
			c-0.823-2.25-0.746-5.584-1.723-7.462c-4.775-9.187-7.765-26.902-2.869-37.309c-4.999,2.319-13.029,3.635-19.516,1.147
			c-6.509-6.153-5.714-11.618-7.462-21.811c-3.119,3.003-5.238,1.327-6.313,3.444c-0.697,1.371,2.034,6.389-0.574,8.609
			c-1.007,0.857-4.059,2.492-5.74,2.87c-0.864,0.194-1.225-0.325-2.87,0c-7.258,1.436-13.786-4.938-17.22-1.147
			c-1.669,1.841,2.203,5.155-0.574,8.035c-2.208,0.459-4.575,2.149-7.462,2.296c2.519,10.384,2.922,19.717,5.166,29.273
			c-0.047,3.597-0.551,6.512-1.147,10.331c-0.435,2.78,0.665,6.261,0,9.184c-0.633,2.781-3.371,8.078-4.592,10.332
			c-2.635,4.866-3.115,8.455-4.018,15.497c-0.108,0.84-0.427,3.619-0.574,4.019c-0.831,2.255-2.125,0.864-1.148,4.018
			c-7.294,10.548-10.119,22.998-20.089,30.995c1.009-2.523-1.506-0.977-2.296-2.87c-0.337-0.811,0.749-1.905,0.574-2.296
			c-1.545-3.459-3.602-5.425-7.462-7.462c-1.964-0.242-1.725,1.72-2.87,2.296c1.769,4.424,8.351,11.449,7.461,15.498
			c-9.34-2.777-12.66-10.875-19.515-5.74c1.238,2.397,2.411,4.86,6.313,4.592c-0.353,0.512-0.693,1.027,0,1.148
			c-7.72,2.78-14.186-3.715-21.811,2.87c-0.834-0.255,0.058-0.504,0-1.148c-2.449,1.144-4.283,3.719-6.314,2.296
			c1.704-9.049,15.172-0.692,14.35-10.332c4.448-3.251,8.562-4.172,14.923-2.296c2.147-3.646-0.703-7.328,3.444-11.479
			c5.441-0.485,8.762,2.179,11.479,5.166c2.339-0.077,2.452-2.328,1.722-2.87c3.94-6.688,6.896-11.047,8.61-18.367
			c0.465,0.109,0.572,0.576,1.148,0.574c-1.639-2.311,1.053-3.683,1.722-6.888c1.038-4.975,0.269-11.043,1.722-15.498
			c0.025-0.075,1.048,0.783,1.148,0.574c0.137-0.286-0.555-1.803-0.574-1.722c0.741-3.152,3.499-3.989,5.166-6.888
			c3.881-6.75,2.702-14.984,2.87-28.125c-2.478-0.832-8.013-1.18-8.61,0.573c-4.137-2.588-11.204-3.258-13.775-4.592
			c-3.405-1.767-8.473-6.697-13.775-5.739c-2.056,0.371-7.366,0.394-9.184,0c-1.559-0.338-1.809-1.744-3.444-2.296
			c-1.941-0.656-7.042-1.509-9.184-4.019c-0.336-0.394-0.184-1.81,0-1.722c-1.575-0.761-3.552,0.238-5.166,0
			c-12.58-1.855-22.562-11.204-29.847-19.515c-0.293-0.335,0.45-0.727,0.574-0.574c-3.732-4.605-7.127-9.718-9.184-17.793
			c-3.365,0.811-5.976-2.038-6.888-2.87c-4.596-4.195-9.615-8.177-11.479-13.202C3.115,131.916,3.737,121.031,0,114.132
			C8.602,84.01,31.42,66.656,48.214,45.254C59.773,33.863,70.18,24.421,87.245,12.537z M144.643,15.407
			c-9.711-3.954-26.98-10.132-34.439-5.166c0.228-0.152,0.774,0.227,0.574,0.574C100.635,13.199,93.4,17.39,84.949,24.591
			c-0.059-0.644,0.834-0.894,0-1.148c-9.71,6.172-18.982,15.995-26.403,22.385c-4.965,6.758-16.838,16.881-20.089,23.533
			c-0.576,0.002-0.683-0.465-1.148-0.574C26.902,81.74,17.388,93.936,9.184,107.818c-3.567,8.237,2.598,13.745,2.87,27.551
			c1.913,4.167,3.189,11.183,9.758,14.923c1.992,1.135,5.212,0.19,7.461,1.148c0.219,0.093-0.656,1.098-0.574,1.148
			c4.659,2.86,19.458,6.904,13.201,12.054c-2.814-0.634-5.33-2.676-8.609-0.574c5.321,9.757,13.12,15.039,20.089,16.646
			c-0.302-0.069-0.665-0.407,0-0.574c2.966,1.665,6.618,4.797,9.757,4.019c0.919-0.229,0.744-1.887,1.722-1.723
			c2.834,0.478,3.515,4.287,6.314,4.592c-2.917-6.921-6.149-9.027-12.628-11.479c1.691-4.926-0.14-10.092-0.574-15.497
			c-4.581-7.899-17.877-8.183-20.664-13.776c-4.233-2.875-6.848-6.967-7.461-10.905c-1.347-8.646,2.883-16.373,4.018-17.793
			c4.264-5.339,10.367-14.605,18.941-18.941c2.271-1.148,5.047-1.942,7.462-2.87c7.667-4.606,24.406,5.48,34.439-1.148
			c7.414,12.892,22.255,11.602,33.291,8.61c-0.664-7.605-8.172-6.058-11.479-12.054c-2.887-5.232,2.329-11.871,3.444-14.923
			c1.252-3.429,0.695-9.307,3.444-8.61c0.621,4.923,2.073,7.583,4.592,12.627c7.424,6.778,5.141,15.124,10.906,21.237
			c1.105,1.172,3.864,7.083,9.184,9.184c0.738,0.292,2.044-0.783,2.87-0.574c2.081,0.525,3.815,1.895,5.74,2.296
			c3.369,0.703,3.571,0.501,5.74,1.722c4.406,2.48,8.961,3.951,13.775,5.166c-1.688,1.929,5.847,1.799,7.462,2.87
			c2.242,1.486-3.025,1.033,0.574,1.722c0.224,0.043,5.579-0.723,7.462-1.148c1.45-0.328,2.655-1.862,4.018-1.722
			c6.641-4.025,12.016,3.309,19.516,5.74c-0.319,0.002-0.651-0.465,0-0.574c1.676,1.768,5.558,1.33,6.888,3.444
			c4.415-1.293,7.454-0.745,9.184-1.148c5.048-1.177,9.109-4.085,13.775-4.592c2.259-0.245,4.4,4.025,6.313,5.166
			c2.223,1.326,8.022,1.82,10.906,1.722c4.108-0.14,16.517-4.636,17.219-0.574c1.516,8.767,3.815,11.562,11.479,14.35
			c0.188,0.068-0.627,1.128-0.573,1.148c4.702,1.724,7.161,0.479,10.905,2.87c-3.777,4.58-9.613,10.989-13.201,15.497
			c0.33,4.34-0.17,6.48,3.443,10.906c-8.552,7.8-3.064,15.336,0.574,24.106c-1.378,1.823-4.192,2.482-5.166,5.166
			c0.1-0.274,0.694,1.558,0.574,1.722c0.04-0.054-8.298,5.591-5.166,6.888c2.914-1.652,6.68-0.566,9.758-2.869
			c-0.022,0.313-0.729,1.325,0,1.147c6.145-1.494,11.191-5.56,17.22-10.331c2.273-1.801,5.568-3.707,6.888-6.314
			c-0.057,0.111-0.898-0.19-0.574-0.573c2.351-2.78,6.758-6.223,7.462-6.889c1.641-1.553,1.827-4.973,2.296-6.313
			c0.767,0.01,0.734,0.745,1.147,0c4.19-7.549,6.602-28.851-0.573-35.013c0.668-0.097,0.623-0.907,0.573-1.722
			c-13.812-15.742-24.365-39.635-37.309-52.806c-4.223-0.394-13.287-11.177-17.219-12.054c0.303,0.068,0.663,0.409,0,0.574
			c-2.874-3.628-5.612-7.103-6.889-10.332c-6.235-5.659-4.825-12.571-13.775-21.237c-0.774-0.75-0.175-0.99-0.573-1.722
			c-1.074-1.97-6.071-7.036-9.185-8.609c0.066,0.033-1.778-2.23-1.147-1.722c-3.646-2.936-8.52-4.491-13.201-6.888
			c-2.309-1.181-4.08-3.646-6.314-4.592c-10.635-4.501-22.374-5.001-32.143-7.462c-0.996-0.25-1.367-1.564-2.296-1.722
			c-3.233-0.55-9.456,0.981-10.906-1.722C164.651,15.582,155.325,16.258,144.643,15.407z M134.886,119.872
			c1.767,1.991,6.172,8.977,6.888,6.313c1.957,1.87,4.479,3.174,8.609,2.87c-2.949-10.363-1.071-15.294-8.036-19.515
			c-3.524-2.8-9.433-11.342-10.332-18.941c-2.843-1.345-1.611-8.914-6.888-8.036c0.913,1.481-0.337,3.203,0.574,5.166
			c-0.576,0.002-0.683-0.465-1.148-0.574c0.427,2.34-1.85,1.976-1.148,4.592c1.81,1.252,2.678,3.444,5.74,3.444
			c2.055,3.27,7.695,13.946-0.574,12.627C127.249,112.255,130.505,114.935,134.886,119.872z M90.115,103.8
			c-5.392,0.104-7.071-0.783-12.628-2.296c-6.419-6.338-11.907-4.115-20.089-0.574c6.065,10.245,17.745,8.574,30.995,9.758
			c2.106,7.272,6.375,10.738,10.906,14.923c4.217,2.511,18.458,16.669,25.829,6.888c-3.374-3.107-6.063-4.773-7.462-5.166
			c-1.715-6.907-6.564-8.575-9.758-13.776c1.327-1.426-0.459-1.281-0.574-1.722c-1.546-5.931-3.931-5.104-8.61-9.184
			c-1.102,0.456-4.505-1.373-6.313,0.574c-0.059-0.644,0.834-0.894,0-1.148C92.319,104.678,88.223,101.459,90.115,103.8z
			 M121.11,140.535c-10.498-3.205-17.697-7.419-24.681-13.201c-2.336-3.303-7.097-8.692-8.61-9.184
			c-0.726-3.359-3.318-4.468-5.74-4.592c-9.604-0.49-21.06-0.465-28.125-5.74c-0.25-0.403-0.761-1.85-2.296-2.87
			c-1.538,3.418-4.016,3.554-6.313,6.888c10.668,9.098,27.79,1.735,33.865,10.332c0.254,0.36,4.475,6.085,4.592,6.313
			c2.581,5.044,14.854,11.124,20.089,12.628c0.058,0.645-0.834,0.892,0,1.148c5.965,1.833,15.368,2.549,21.811,0.574
			C125.745,140.16,122.909,141.084,121.11,140.535z M129.146,116.428c-2.116-1.709-2.946-4.632-4.592-8.036
			c-6.964,2.648-10.711-1.128-15.498,0.574c1.673,5.714,10.671,14.125,16.072,17.793c0.224-0.881,0.689-0.084,0,0.574
			c4.988,0.506,7.641,6.588,12.627,2.296c-3.141-2.953-6.553-6.766-7.462-10.906C128.39,118.384,128.571,118.382,129.146,116.428z
			 M88.393,149.145c9.591,2.216,18.638,1.698,24.681-1.722c-9.412-2.688-21.05-6.528-24.107-12.627
			c-3.794-2.114-8.146-5.146-9.757-8.61c-0.195-0.419-0.388,0.347-1.148-0.574c-1.367-1.656-0.771-3.391-3.444-4.592
			c-3.012-1.353-8.185,0.234-12.054,0c-8.608-0.521-16.183-3.418-22.385-2.87c-3.416,8.893,5.993,22.192,17.793,22.959
			c0.058,0.644-0.834,0.894,0,1.148c8.661,1.38,13.468,2.35,22.385-1.722C79.648,144.581,89.1,146.927,88.393,149.145z
			 M165.88,118.724c-4.591,1.333-7.548-0.443-13.202,0c-0.773,1.641,1.347,4.562,0.574,8.036c1.974,0.897,6.036,2.118,5.166,4.018
			c7.264-0.055,8.605-6.264,10.905-9.758C167.725,119.718,164.543,120.184,165.88,118.724z M170.472,127.907
			c0.371,2.5,2.985,2.755,3.444,5.166c5.461,0.351,8.005-4.26,11.479-7.462c-5.354-0.303-7.734-2.149-11.479-2.87
			C171.474,124.779,171.847,126.971,170.472,127.907z M203.189,124.463c-7.832,3.959-14.544,0.391-18.367,9.184
			c8.81,1.248,23.092,2.325,28.698-4.018C210.913,128.098,207.528,126.798,203.189,124.463z M249.682,130.203
			c-11.026,4.747-19.672,4.5-28.125,2.87c0.351,0.032,0.68,0.085,0.574,0.574c-1.782-1.165-2.509-0.825-4.592-2.296
			c-2.263,3.324-6.369,2.375-8.036,4.018c-0.74,0.73,0.051,1.352-0.574,1.722c-2.494,1.476-7.53-0.054-10.331,5.166
			c17.548,5.203,39.558,2.63,52.232-9.758C250.184,131.98,250.866,131.215,249.682,130.203z M115.37,151.44
			c-7.535,0.889-15.753,3.025-24.107,2.296c-8.278-0.723-12.54-9.298-21.237-6.314c-8.098-0.739-18.389-2.482-27.551-6.888
			c-1.449-2.482-3.905-4.605-5.74-6.888c0.302,6.134,2.495,7.708,1.148,10.906c4.679,2.522,6.381,4.915,15.498,6.888
			c1.565,2.579,2.71,2.17,5.74,3.444c0.757,2.037,4.053,6.194,6.888,8.036c14.298,1.232,22.702-4.365,34.439-5.74
			c4.03-0.472,10.373-0.162,14.923-1.722c1.231-0.422,6.264-4.351,9.184-4.592c-1.611,0.246,1.438-2.14-0.574-2.296
			C120.807,149.995,119.19,152.729,115.37,151.44z M232.462,146.274c1.116,0.818,4.032,0.086,2.87,1.722
			c10.05,2.735,22.128,1.7,31.569-2.87c3.147-1.523,12.938-6.418,10.331-10.332c-7.375-0.809-16.534,4.474-20.089,0
			C247.585,135.096,242.205,142.912,232.462,146.274z M210.651,180.713c4.649-4.489,5.608-6.501,0.573-12.054
			c-6.915-7.627-16.593-20.855-24.681-29.273c-2.648,0.946-9.551,2.157-13.202,1.148c-1.669-0.461-3.03-2.869-5.166-3.444
			c-4.041-1.087-9.09,1.515-12.053,0c-1.354-0.692-1.02-2.11-2.296-2.296c-0.297-0.043-1.202,1.658-1.722,1.722
			c-2.352,0.288-5.03-2.329-6.888-1.722c-5.077,3.979-10.845,1.646-14.35,4.018c7.642,16.163-7.89,31.664-16.071,39.604
			c-1.9,1.844-0.808,6.791,2.296,9.184c2.762-4.495,10.17-5.053,14.923-8.035c-0.004-2.943-0.537-2.798-1.148-5.74
			c2.273-5.408,11.715-5.957,15.498-3.444c0.214,0.098,8.899,3.061,12.054-1.147c0.564-3.598-2.918-4.173-1.722-8.036
			c9.187-7.513,23.261-3.131,29.847,3.444c1.799,1.797,5.616,6.752,1.722,9.184c-4.817,1.111-5.375,0.017-9.184,1.722
			c0.13,1.185,2.196,3.407,4.018,4.592c7.98,0.291,20.704-11.792,25.256,2.296C208.477,180.936,209.96,181.38,210.651,180.713z
			 M237.628,150.292c0.351,0.033,0.68,0.086,0.574,0.574c-4.249-0.763-8.62-4.261-13.202-4.018
			c-8.188,0.435-15.292,1.833-22.959,2.296c0.351,0.033,0.68,0.086,0.574,0.574c-0.319-0.002-0.651,0.465,0,0.574
			c0.181-0.924,0.817,0.044,0.574,1.148c0.826,1.27,1.4-0.723,1.722,0.574c0.608,0.743,1.052,2.384,1.722,2.87
			c4.641,3.366,30.532,7.891,40.179,4.018c6.201-2.49,6.023-1.023,10.332,1.722c2.562,1.633,6.344,2.291,8.609,2.87
			c7.597,1.943,12.902-1.683,20.663-6.888c-0.207,0.139,3.474-3.984,3.444-4.592c0.07,1.439-2.863-2.808-2.296-2.296
			c-2.877-2.598-7.278-5.111-9.758-8.036C267.556,149.941,248.56,155.295,237.628,150.292z M94.133,160.624
			c0.35,0.033,0.679,0.086,0.574,0.574c-3.73,0.634-8.789,2.598-10.906,2.87c0.844,1.15-4.196-0.388-5.74,1.148
			c-2.762,4.167-14.314,1.137-12.054,9.758c1.754,1.189,1.799,0.758,4.018,1.722c0.819-0.138,0.968-0.945,1.722-1.148
			c8.788,1.251,13.047-7.173,19.516-6.888c0.303,0.014,1.433,1.609,1.722,1.722c4.523,1.776,13.311-0.722,17.793-4.018
			c0.058,0.645-0.834,0.894,0,1.148c0.856-1.677,3.738-3.587,5.166-2.87c-0.307-2.794,2.288-2.686,2.87-4.592
			C111.221,160.562,99.568,157.327,94.133,160.624z M257.144,162.92c0.351,0.033,0.68,0.086,0.574,0.574
			c-2.841-1.521-3.188-2.817-6.888-4.018c-3.863,2.267-9.475,3.675-12.054,1.722c-5.854,0.419-12.76,1.194-19.516,1.722
			c-1.792,0.14-3.684-1.271-4.592,1.148c3.281,1.885,4.525,5.806,7.462,8.036c5.323,0.94,16.878,0.13,24.681-1.723
			c1.291-0.306,4.238,2.938,6.314,4.019c2.127,1.106,5.544,1.146,6.888,3.443c10.52,1.89,14.984,0.749,22.959-6.313
			c-0.294-0.84,1.363-5.375,0-6.314C275.534,168.228,263.638,166.896,257.144,162.92z M72.896,179.566
			c2.724-0.499,1.588,1.401,2.296,1.722c1.973,2.181,4.797,1.018,8.036,1.147c6.752,0.272,19.939,0.377,22.385-8.609
			c-5.119,0.15-9.597,1.241-16.071-2.296C85.217,175.761,77.777,176.039,72.896,179.566z M243.941,187.027
			c3.858,3.062,7.896,7.907,15.498,8.036c3.473,2.946,6.943,0.243,10.332,2.87c5.763-3.424,6.87-4.76,12.053-8.036
			c-1.097-3.146,0.226-6.773,1.148-10.331c-7.807,1.421-12.606,2.756-20.663,1.147c-8.397-1.676-16.373-11.665-25.829-4.592
			c-4.38-0.932-9.245,1.63-13.775,1.148c0.171,1.128-0.775,1.138-1.148,1.722c0.634,0.519,0.397,1.284,0,2.296
			C232.337,182.388,237.098,181.594,243.941,187.027z M83.227,192.767c-0.792-0.252,8.963-0.024,9.184,0
			c2.554,0.283,9.756-2.335,11.479-2.87c-0.046,0.015,4.396-1.83,4.592-2.296c-0.136-0.786-1.396-1.934-2.296-3.443
			c0.644-0.059,0.894,0.834,1.148,0c-8.414,1.488-22.191,1.079-28.125,1.722C81.012,187.279,80.072,191.762,83.227,192.767z
			 M237.628,185.305c-6.219,2.365-10.551-0.44-16.646-0.574c2.56,6.837,10.577,8.78,16.071,13.776
			c0.268,0.242-0.735,1.033-0.573,1.147c1.186,0.838,2.912,0.566,4.018,1.148c4.896,2.573,8.345,6.081,13.201,6.888
			c1.959,0.325,4.138-0.729,6.314,0c1.653,0.554,3.118,3.498,6.888,2.296c2.312,2.088,5.039,3.762,9.758,3.443
			c3.926-6.094,3.96-9.143,8.035-12.054c0.475-1.622-0.809-1.486-0.574-2.869C266.665,204.023,243.955,194.321,237.628,185.305z
			 M218.687,192.767c-0.153-1.785-1.803-3.905-4.592-4.592c-0.519,1.012-1.284,1.777-2.296,2.296
			c0.729,2.966,1.863,2.651,1.722,5.739c4.121,2.718,6.287,6.895,10.332,9.185c1.484,0.84,3.699,0.348,5.166,1.147
			c1.133,0.618,1.452,2.03,2.87,2.87c1.906,1.13,5.632,1.753,7.461,2.87c1.458,0.89,1.567,2.596,3.444,3.443
			c3.526,1.593,7.038-0.443,11.479,0C245.446,202.666,232.317,202.441,218.687,192.767z M111.353,192.193
			c-0.562,4.143-5.121,0.956-5.74,6.314c2.213,0.627,8.003,2.054,14.35,0.573C118.091,195.542,114.894,192.989,111.353,192.193z
			 M230.166,215.152c-4.06-7.477-13.057-11.566-20.663-16.645C208.244,209.291,222.344,216.968,230.166,215.152z"/>
		<path fill-rule="evenodd" clip-rule="evenodd" fill="#9B5F0E" d="M175.638,13.685c1.45,2.703,7.673,1.172,10.906,1.722
			c0.929,0.158,1.3,1.472,2.296,1.722c9.769,2.46,21.508,2.96,32.143,7.462c2.234,0.945,4.006,3.411,6.314,4.592
			c4.682,2.396,9.555,3.952,13.201,6.888c-0.631-0.508,1.214,1.755,1.147,1.722c3.113,1.573,8.11,6.639,9.185,8.609
			c0.398,0.732-0.201,0.972,0.573,1.722c8.95,8.666,7.54,15.579,13.775,21.237c1.276,3.229,4.015,6.703,6.889,10.332
			c0.663-0.165,0.303-0.506,0-0.574c3.932,0.877,12.996,11.66,17.219,12.054c12.943,13.171,23.496,37.064,37.309,52.806
			c0.05,0.815,0.095,1.625-0.573,1.722c7.175,6.162,4.764,27.464,0.573,35.013c-0.413,0.745-0.381,0.01-1.147,0
			c-0.469,1.341-0.655,4.761-2.296,6.313c-0.704,0.666-5.111,4.108-7.462,6.889c-0.324,0.383,0.518,0.685,0.574,0.573
			c-1.319,2.607-4.614,4.514-6.888,6.314c-6.028,4.771-11.075,8.837-17.22,10.331c-0.729,0.178-0.022-0.834,0-1.147
			c-3.078,2.303-6.844,1.217-9.758,2.869c-3.132-1.297,5.206-6.941,5.166-6.888c0.12-0.164-0.475-1.996-0.574-1.722
			c0.974-2.684,3.788-3.343,5.166-5.166c-3.639-8.771-9.126-16.307-0.574-24.106c-3.613-4.426-3.113-6.566-3.443-10.906
			c3.588-4.508,9.424-10.917,13.201-15.497c-3.744-2.391-6.203-1.146-10.905-2.87c-0.054-0.02,0.761-1.08,0.573-1.148
			c-7.664-2.788-9.964-5.583-11.479-14.35c-0.702-4.062-13.11,0.435-17.219,0.574c-2.884,0.098-8.684-0.396-10.906-1.722
			c-1.913-1.141-4.055-5.411-6.313-5.166c-4.666,0.507-8.728,3.415-13.775,4.592c-1.729,0.403-4.769-0.145-9.184,1.148
			c-1.33-2.115-5.212-1.676-6.888-3.444c-0.651,0.109-0.319,0.576,0,0.574c-7.5-2.431-12.875-9.765-19.516-5.74
			c-1.362-0.14-2.567,1.394-4.018,1.722c-1.883,0.425-7.238,1.191-7.462,1.148c-3.6-0.688,1.668-0.235-0.574-1.722
			c-1.615-1.071-9.15-0.941-7.462-2.87c-4.814-1.215-9.369-2.686-13.775-5.166c-2.169-1.221-2.371-1.02-5.74-1.722
			c-1.925-0.401-3.659-1.771-5.74-2.296c-0.826-0.208-2.132,0.866-2.87,0.574c-5.32-2.101-8.078-8.012-9.184-9.184
			c-5.765-6.113-3.481-14.459-10.906-21.237c-2.519-5.044-3.971-7.705-4.592-12.627c-2.749-0.697-2.192,5.181-3.444,8.61
			c-1.115,3.053-6.331,9.691-3.444,14.923c3.308,5.996,10.816,4.449,11.479,12.054c-11.035,2.992-25.877,4.282-33.291-8.61
			c-10.033,6.628-26.771-3.458-34.439,1.148c-2.415,0.928-5.191,1.722-7.462,2.87c-8.575,4.336-14.678,13.602-18.941,18.941
			c-1.135,1.421-5.364,9.147-4.018,17.793c0.613,3.938,3.228,8.031,7.461,10.905c2.787,5.593,16.083,5.876,20.664,13.776
			c0.434,5.405,2.265,10.571,0.574,15.497c6.479,2.452,9.711,4.559,12.628,11.479c-2.799-0.305-3.48-4.114-6.314-4.592
			c-0.978-0.164-0.803,1.494-1.722,1.723c-3.139,0.778-6.791-2.354-9.757-4.019c-0.665,0.167-0.302,0.505,0,0.574
			c-6.969-1.606-14.768-6.889-20.089-16.646c3.279-2.102,5.795-0.06,8.609,0.574c6.257-5.149-8.542-9.193-13.201-12.054
			c-0.083-0.05,0.793-1.055,0.574-1.148c-2.25-0.958-5.469-0.013-7.461-1.148c-6.568-3.74-7.845-10.756-9.758-14.923
			c-0.272-13.806-6.437-19.314-2.87-27.551c8.205-13.882,17.718-26.078,28.125-39.031c0.465,0.109,0.572,0.576,1.148,0.574
			c3.251-6.652,15.125-16.775,20.089-23.533c7.421-6.391,16.693-16.213,26.403-22.385c0.834,0.254-0.059,0.504,0,1.148
			c8.451-7.201,15.686-11.392,25.829-13.776c0.2-0.347-0.346-0.726-0.574-0.574c7.459-4.967,24.728,1.212,34.439,5.166
			C155.325,16.258,164.651,15.582,175.638,13.685z M204.911,36.07c3.236,0.075,6.692,0.053,8.609-2.87
			c-0.051-2.144-0.644-1.636,0-3.444C208.725,25.614,200.349,30.279,204.911,36.07z M231.314,42.384
			c-2.419-0.083-6.645-2.909-8.609-3.444C211.087,53.455,239.682,55.479,231.314,42.384z M112.5,49.272
			c-1.639-7.017-3.107-10.034-8.036-5.166c-0.185,0.182,0.325-0.439-0.574,0c-4.83,2.359-3.606,7.16-2.87,12.054
			c1.252-0.104,1.826,0.47,1.722,1.722c6.456,0.31,4.768-4.212,8.036-5.166C110.587,52.201,111.515,47.617,112.5,49.272z
			 M249.107,65.917c-0.004-4.752-4.645-8.115-9.184-8.61c-7.454,7.145,3.794,17.719,7.462,11.479
			C246.731,68.825,247.827,65.839,249.107,65.917z M231.889,79.119c-1.766-2.067-4.041-8.582-8.036-10.332
			c-2.239,3.5-4.522,6.958-4.018,13.202C224.261,89.472,235.177,85.989,231.889,79.119z M272.641,100.93
			c0.473-4.618-7.536-13.564-12.627-13.202C252.695,97.646,265.621,111.755,272.641,100.93z"/>
		<path fill-rule="evenodd" clip-rule="evenodd" d="M213.521,29.756c-0.644,1.808-0.051,1.3,0,3.444
			c-1.917,2.923-5.373,2.945-8.609,2.87C200.349,30.279,208.725,25.614,213.521,29.756z M207.781,30.331
			c-0.808,0.75-2.063,3.038,0,3.444c1.058,0.087,3.839-2.349,2.296-3.444C209.559,30.965,208.793,30.728,207.781,30.331z"/>
		<path fill-rule="evenodd" clip-rule="evenodd" fill="#F1E5C8" d="M210.077,30.331c1.543,1.095-1.238,3.531-2.296,3.444
			c-2.063-0.406-0.808-2.694,0-3.444C208.793,30.728,209.559,30.965,210.077,30.331z"/>
		<path fill-rule="evenodd" clip-rule="evenodd" d="M247.386,68.787c-3.668,6.239-14.916-4.334-7.462-11.479
			c4.539,0.495,9.18,3.857,9.184,8.61C247.827,65.839,246.731,68.825,247.386,68.787z M241.072,67.639
			c5.425-0.021,5.595-2.978,4.018-6.313c-2.742-0.075-3.007-2.024-5.166-0.574C239.187,62.464,239.537,66.232,241.072,67.639z"/>
		<path fill-rule="evenodd" clip-rule="evenodd" d="M219.835,81.989c-0.505-6.244,1.778-9.701,4.018-13.202
			c3.995,1.75,6.271,8.265,8.036,10.332C235.177,85.989,224.261,89.472,219.835,81.989z M221.557,80.267
			c2.646,2.33,6.521,6.317,8.609,1.722c-1.273-2.708-2.864-8.017-5.739-9.758C223.098,74.736,221.643,77.877,221.557,80.267z"/>
		<path fill-rule="evenodd" clip-rule="evenodd" fill="#F1E5C8" d="M128.572,107.818c8.269,1.319,2.629-9.357,0.574-12.627
			c-3.062,0-3.93-2.192-5.74-3.444c-0.702-2.616,1.575-2.252,1.148-4.592c0.465,0.109,0.572,0.576,1.148,0.574
			c-0.911-1.962,0.339-3.685-0.574-5.166c5.277-0.878,4.045,6.69,6.888,8.036c0.899,7.6,6.808,16.141,10.332,18.941
			c6.964,4.221,5.086,9.152,8.036,19.515c-4.131,0.304-6.652-1-8.609-2.87c-0.715,2.664-5.121-4.322-6.888-6.313
			C130.505,114.935,127.249,112.255,128.572,107.818z"/>
		<path fill-rule="evenodd" clip-rule="evenodd" fill="#F1E5C8" d="M92.411,102.078c0.834,0.254-0.059,0.504,0,1.148
			c1.808-1.947,5.211-0.118,6.313-0.574c4.679,4.081,7.064,3.253,8.61,9.184c0.115,0.441,1.901,0.296,0.574,1.722
			c3.193,5.201,8.042,6.869,9.758,13.776c1.398,0.393,4.088,2.058,7.462,5.166c-7.371,9.781-21.612-4.377-25.829-6.888
			c-4.531-4.185-8.8-7.651-10.906-14.923c-13.25-1.184-24.93,0.487-30.995-9.758c8.183-3.542,13.67-5.765,20.089,0.574
			c5.557,1.513,7.236,2.399,12.628,2.296C88.223,101.459,92.319,104.678,92.411,102.078z"/>
		<path fill-rule="evenodd" clip-rule="evenodd" fill="#F1E5C8" d="M125.702,142.831c-6.443,1.975-15.846,1.259-21.811-0.574
			c-0.834-0.256,0.058-0.503,0-1.148c-5.236-1.504-17.509-7.584-20.089-12.628c-0.117-0.229-4.337-5.954-4.592-6.313
			c-6.075-8.597-23.196-1.234-33.865-10.332c2.297-3.334,4.775-3.47,6.313-6.888c1.535,1.02,2.046,2.467,2.296,2.87
			c7.065,5.274,18.521,5.25,28.125,5.74c2.421,0.124,5.014,1.233,5.74,4.592c1.513,0.492,6.274,5.881,8.61,9.184
			c6.984,5.782,14.184,9.996,24.681,13.201C122.909,141.084,125.745,140.16,125.702,142.831z"/>
		<path fill-rule="evenodd" clip-rule="evenodd" fill="#F1E5C8" d="M80.357,140.535c-8.917,4.072-13.725,3.102-22.385,1.722
			c-0.834-0.254,0.058-0.504,0-1.148c-11.8-0.767-21.209-14.066-17.793-22.959c6.202-0.548,13.777,2.349,22.385,2.87
			c3.869,0.234,9.042-1.353,12.054,0c2.673,1.201,2.077,2.936,3.444,4.592c0.76,0.92,0.953,0.155,1.148,0.574
			c1.612,3.464,5.963,6.496,9.757,8.61c3.058,6.099,14.696,9.94,24.107,12.627c-6.043,3.42-15.09,3.938-24.681,1.722
			C89.1,146.927,79.648,144.581,80.357,140.535z"/>
		<path fill-rule="evenodd" clip-rule="evenodd" fill="#F1E5C8" d="M213.521,129.629c-5.606,6.342-19.889,5.265-28.698,4.018
			c3.823-8.792,10.535-5.224,18.367-9.184C207.528,126.798,210.913,128.098,213.521,129.629z"/>
		<path fill-rule="evenodd" clip-rule="evenodd" fill="#F1E5C8" d="M250.83,132.499c-12.675,12.388-34.685,14.961-52.232,9.758
			c2.801-5.22,7.837-3.69,10.331-5.166c0.625-0.37-0.166-0.992,0.574-1.722c1.667-1.643,5.773-0.694,8.036-4.018
			c2.083,1.471,2.81,1.131,4.592,2.296c0.105-0.488-0.224-0.542-0.574-0.574c8.453,1.63,17.099,1.877,28.125-2.87
			C250.866,131.215,250.184,131.98,250.83,132.499z"/>
		<path fill-rule="evenodd" clip-rule="evenodd" fill="#F1E5C8" d="M123.98,148.571c2.012,0.156-1.037,2.542,0.574,2.296
			c-2.919,0.241-7.953,4.169-9.184,4.592c-4.551,1.56-10.894,1.25-14.923,1.722c-11.737,1.375-20.141,6.972-34.439,5.74
			c-2.835-1.842-6.13-5.999-6.888-8.036c-3.029-1.273-4.175-0.865-5.74-3.444c-9.116-1.973-10.819-4.365-15.498-6.888
			c1.347-3.197-0.846-4.771-1.148-10.906c1.835,2.282,4.291,4.405,5.74,6.888c9.163,4.405,19.454,6.149,27.551,6.888
			c8.697-2.984,12.959,5.591,21.237,6.314c8.354,0.729,16.572-1.407,24.107-2.296C119.19,152.729,120.807,149.995,123.98,148.571z"
			/>
		<path fill-rule="evenodd" clip-rule="evenodd" fill="#F1E5C8" d="M257.144,134.795c3.555,4.474,12.714-0.809,20.089,0
			c2.607,3.913-7.184,8.808-10.331,10.332c-9.441,4.57-21.52,5.605-31.569,2.87c1.162-1.636-1.754-0.904-2.87-1.722
			C242.205,142.912,247.585,135.096,257.144,134.795z"/>
		<path fill-rule="evenodd" clip-rule="evenodd" fill="#F7F0E0" d="M208.355,182.435c-4.552-14.088-17.275-2.005-25.256-2.296
			c-1.821-1.185-3.888-3.407-4.018-4.592c3.809-1.705,4.366-0.61,9.184-1.722c3.895-2.432,0.077-7.387-1.722-9.184
			c-6.586-6.575-20.661-10.957-29.847-3.444c-1.196,3.863,2.286,4.438,1.722,8.036c-3.154,4.208-11.839,1.245-12.054,1.147
			c-3.782-2.513-13.224-1.964-15.498,3.444c0.611,2.942,1.144,2.797,1.148,5.74c-4.753,2.982-12.162,3.54-14.923,8.035
			c-3.104-2.393-4.196-7.34-2.296-9.184c8.182-7.94,23.713-23.442,16.071-39.604c3.504-2.372,9.272-0.039,14.35-4.018
			c1.857-0.606,4.536,2.01,6.888,1.722c0.52-0.064,1.424-1.766,1.722-1.722c1.277,0.186,0.942,1.604,2.296,2.296
			c2.963,1.515,8.013-1.087,12.053,0c2.135,0.575,3.497,2.983,5.166,3.444c3.651,1.009,10.554-0.202,13.202-1.148
			c8.088,8.417,17.766,21.646,24.681,29.273c5.035,5.553,4.076,7.564-0.573,12.054C209.96,181.38,208.477,180.936,208.355,182.435z"
			/>
		<path fill-rule="evenodd" clip-rule="evenodd" fill="#F1E5C8" d="M277.807,141.683c2.479,2.924,6.881,5.438,9.758,8.036
			c-0.567-0.512,2.366,3.735,2.296,2.296c0.029,0.608-3.651,4.731-3.444,4.592c-7.761,5.205-13.066,8.831-20.663,6.888
			c-2.266-0.58-6.047-1.237-8.609-2.87c-4.309-2.745-4.131-4.211-10.332-1.722c-9.646,3.873-35.538-0.652-40.179-4.018
			c-0.67-0.486-1.113-2.127-1.722-2.87c-0.321-1.296-0.896,0.696-1.722-0.574c0.243-1.104-0.394-2.072-0.574-1.148
			c-0.651-0.109-0.319-0.576,0-0.574c0.105-0.488-0.224-0.541-0.574-0.574c7.667-0.462,14.771-1.861,22.959-2.296
			c4.582-0.243,8.953,3.255,13.202,4.018c0.105-0.488-0.224-0.542-0.574-0.574C248.56,155.295,267.556,149.941,277.807,141.683z"/>
		<path fill-rule="evenodd" clip-rule="evenodd" fill="#F1E5C8" d="M118.814,160.05c-0.582,1.906-3.177,1.797-2.87,4.592
			c-1.428-0.717-4.31,1.193-5.166,2.87c-0.834-0.255,0.058-0.504,0-1.148c-4.482,3.296-13.27,5.794-17.793,4.018
			c-0.289-0.112-1.418-1.708-1.722-1.722c-6.468-0.285-10.728,8.139-19.516,6.888c-0.754,0.203-0.903,1.011-1.722,1.148
			c-2.219-0.964-2.264-0.532-4.018-1.722c-2.261-8.621,9.292-5.591,12.054-9.758c1.543-1.536,6.584,0.002,5.74-1.148
			c2.117-0.271,7.175-2.235,10.906-2.87c0.105-0.488-0.224-0.542-0.574-0.574C99.568,157.327,111.221,160.562,118.814,160.05z"/>
		<path fill-rule="evenodd" clip-rule="evenodd" fill="#F1E5C8" d="M282.973,165.216c1.363,0.938-0.294,5.474,0,6.314
			c-7.975,7.062-12.439,8.203-22.959,6.313c-1.344-2.298-4.761-2.337-6.888-3.443c-2.076-1.08-5.023-4.324-6.314-4.019
			c-7.803,1.853-19.357,2.663-24.681,1.723c-2.937-2.23-4.181-6.151-7.462-8.036c0.908-2.419,2.8-1.008,4.592-1.148
			c6.756-0.527,13.661-1.303,19.516-1.722c2.579,1.953,8.19,0.544,12.054-1.722c3.7,1.201,4.047,2.497,6.888,4.018
			c0.105-0.488-0.224-0.542-0.574-0.574C263.638,166.896,275.534,168.228,282.973,165.216z"/>
		<path fill-rule="evenodd" clip-rule="evenodd" fill="#F1E5C8" d="M89.541,171.53c6.475,3.537,10.953,2.446,16.071,2.296
			c-2.446,8.986-15.633,8.882-22.385,8.609c-3.239-0.13-6.063,1.033-8.036-1.147c-0.708-0.32,0.428-2.221-2.296-1.722
			C77.777,176.039,85.217,175.761,89.541,171.53z"/>
		<path fill-rule="evenodd" clip-rule="evenodd" fill="#F1E5C8" d="M221.557,181.288c0.397-1.012,0.634-1.777,0-2.296
			c0.373-0.584,1.319-0.594,1.148-1.722c4.53,0.481,9.396-2.08,13.775-1.148c9.456-7.073,17.432,2.916,25.829,4.592
			c8.057,1.608,12.856,0.273,20.663-1.147c-0.923,3.558-2.245,7.185-1.148,10.331c-5.183,3.276-6.29,4.612-12.053,8.036
			c-3.389-2.627-6.859,0.076-10.332-2.87c-7.602-0.129-11.64-4.974-15.498-8.036C237.098,181.594,232.337,182.388,221.557,181.288z"
			/>
		<path fill-rule="evenodd" clip-rule="evenodd" fill="#F1E5C8" d="M79.209,185.879c5.934-0.643,19.711-0.233,28.125-1.722
			c-0.254,0.834-0.504-0.059-1.148,0c0.9,1.51,2.16,2.657,2.296,3.443c-0.196,0.466-4.638,2.311-4.592,2.296
			c-1.723,0.535-8.925,3.153-11.479,2.87c-0.221-0.024-9.976-0.252-9.184,0C80.072,191.762,81.012,187.279,79.209,185.879z"/>
		<path fill-rule="evenodd" clip-rule="evenodd" fill="#F1E5C8" d="M284.12,198.507c-0.234,1.383,1.049,1.247,0.574,2.869
			c-4.075,2.911-4.109,5.96-8.035,12.054c-4.719,0.318-7.446-1.355-9.758-3.443c-3.77,1.202-5.234-1.742-6.888-2.296
			c-2.177-0.729-4.355,0.325-6.314,0c-4.856-0.807-8.306-4.314-13.201-6.888c-1.105-0.582-2.832-0.311-4.018-1.148
			c-0.162-0.114,0.841-0.905,0.573-1.147c-5.494-4.996-13.512-6.939-16.071-13.776c6.095,0.134,10.427,2.939,16.646,0.574
			C243.955,194.321,266.665,204.023,284.12,198.507z"/>
		<path fill-rule="evenodd" clip-rule="evenodd" fill="#F1E5C8" d="M254.273,215.726c-4.441-0.443-7.953,1.593-11.479,0
			c-1.877-0.848-1.986-2.554-3.444-3.443c-1.829-1.117-5.555-1.74-7.461-2.87c-1.418-0.84-1.737-2.252-2.87-2.87
			c-1.467-0.8-3.682-0.308-5.166-1.147c-4.045-2.29-6.211-6.467-10.332-9.185c0.142-3.088-0.992-2.773-1.722-5.739
			c1.012-0.519,1.777-1.284,2.296-2.296c2.789,0.687,4.438,2.807,4.592,4.592C232.317,202.441,245.446,202.666,254.273,215.726z"/>
		<path fill-rule="evenodd" clip-rule="evenodd" fill="#F1E5C8" d="M119.962,199.081c-6.346,1.48-12.137,0.054-14.35-0.573
			c0.62-5.358,5.178-2.172,5.74-6.314C114.894,192.989,118.091,195.542,119.962,199.081z"/>
		<path fill-rule="evenodd" clip-rule="evenodd" fill="#F1E5C8" d="M209.503,198.507c7.606,5.078,16.604,9.168,20.663,16.645
			C222.344,216.968,208.244,209.291,209.503,198.507z"/>
		<path fill-rule="evenodd" clip-rule="evenodd" d="M142.347,208.838c0.032-0.591,1.921-4.282,0-5.166
			c2.965-3.235,4.25,2.692,4.018,4.019c-0.583,0.986-3.308,2.763-2.296,3.443c-0.486,0.854-1.848,0.831-2.87,1.148
			c-0.016-0.559-0.703-0.446-1.148-0.574c1.153-0.51-0.253-2.513-0.574-1.148c-1.287-1.107,1.091-3.956-1.148-4.592
			c1.401-2.968,0.229-3.134,2.296-5.739c1.17,1.001,1.125-0.428,2.296,0.574C141.604,202.5,140.046,206.944,142.347,208.838z"/>
		<path fill-rule="evenodd" clip-rule="evenodd" d="M164.732,222.614c-8.837,6.498-16.968-13.461-3.444-17.219
			C163.972,213.251,167.308,215.041,164.732,222.614z M161.289,221.466c4.277-2.709,1.649-10.819-2.296-12.054
			C156.83,213.014,154.631,219.769,161.289,221.466z"/>
		<path fill-rule="evenodd" clip-rule="evenodd" d="M140.051,241.555c0.525-0.64,1.067-0.181,2.87-0.573
			c4.838,7.303,5.086,9.689,0,17.793c-10.937,0.876-10.662-11.847-2.296-16.646C140.73,241.641,140.401,241.588,140.051,241.555z
			 M140.625,256.479c3.394-3.041,4.96-7.808,1.148-12.054C137.468,246.836,134.466,255.347,140.625,256.479z"/>
		<path fill-rule="evenodd" clip-rule="evenodd" fill="#FFFFFF" d="M141.773,244.425c3.812,4.246,2.246,9.013-1.148,12.054
			C134.466,255.347,137.468,246.836,141.773,244.425z"/>
		<path fill-rule="evenodd" clip-rule="evenodd" d="M132.59,275.42c-0.579,1.727,1.278,1.018,2.296,1.147
			c0.108,2.003,0.277,3.239,1.147,4.592c-0.109,0.651-0.576,0.319-0.574,0c-1.231,4.87-5.519,7.408-6.314,8.036
			c-4.483,3.539-8.065-4.463-6.888-8.036C123.781,276.54,127.357,275.585,132.59,275.42z M125.128,286.9
			c5.132,1.133,9.281-4.496,6.313-9.184C125.918,278.112,123.387,282.757,125.128,286.9z"/>
		<path fill-rule="evenodd" clip-rule="evenodd" fill="#FFFFFF" d="M131.441,277.716c2.968,4.688-1.182,10.316-6.313,9.184
			C123.387,282.757,125.918,278.112,131.441,277.716z"/>
	</g>
</g>
</svg>
